<?xml version="1.0" encoding="utf-8"?>
<!-- Generator: Adobe Illustrator 22.0.1, SVG Export Plug-In . SVG Version: 6.00 Build 0)  -->
<svg version="1.1" xmlns="http://www.w3.org/2000/svg" xmlns:xlink="http://www.w3.org/1999/xlink" x="0px" y="0px"
	 viewBox="0 0 616.6 88.6" style="enable-background:new 0 0 616.6 88.6;" xml:space="preserve">
<style type="text/css">
	.st0{fill:none;stroke:#000000;}
</style>
<g id="ebg-solid">
	<g>
		<path d="M7.7,76.4c-0.3-0.3-0.5-0.7-0.5-1.1s0.2-0.8,0.6-1.2c0.4-0.4,0.9-0.7,1.5-0.9c2.4-0.7,4-1.4,4.8-2.2
			c0.8-0.8,1.3-2.2,1.3-4.2V20.6c0-2.2-0.4-3.7-1.2-4.6c-0.8-0.9-2.4-1.6-4.9-2.2c-1.4-0.3-2.1-1-2.1-2.1c0-0.5,0.2-0.9,0.6-1.2
			C8,10.2,8.5,10,9.1,10c2.4,0,5,0.1,7.6,0.3c3.4,0.1,5.7,0.2,7,0.2c9.1,0,16.9-0.1,23.6-0.3c2.1,0,3.9-0.1,5.3-0.4
			c1.5-0.3,2.3-0.4,2.5-0.4c0.6,0,1.2,0.2,1.7,0.5c0.5,0.3,0.8,0.9,0.9,1.6c0.2,2.2,0.5,4.3,0.9,6.2c0.5,3.8,0.8,6.3,0.8,7.5
			c0,0.6-0.1,1.1-0.4,1.5c-0.2,0.4-0.6,0.6-1,0.6s-0.8-0.2-1.2-0.5c-0.4-0.3-0.7-0.7-1-1.3c-1-2.5-1.8-4.2-2.2-5.2
			c-0.5-0.9-1-1.8-1.7-2.4c-0.9-0.9-2-1.7-3.1-2.3c-1.1-0.6-2.6-0.9-4.3-0.9h-6.4c-1.7,0-3.1,0.4-4.2,1.3c-1.1,0.8-1.6,2-1.6,3.4V38
			c0,1.6,0.9,2.4,2.6,2.4h8.6c1.6,0,2.7-0.5,3.5-1.5c0.8-1,1.6-2.6,2.4-4.8c0.5-1.2,1.2-1.8,2.1-1.8c0.3,0,0.6,0.2,0.9,0.7
			c0.3,0.4,0.4,1,0.3,1.7c-0.3,3.2-0.5,6-0.5,8.4c0,2.9,0.1,5.7,0.4,8.4v0.8c0,1.4-0.3,2-1,2c-0.5,0-0.9-0.2-1.4-0.7
			c-0.5-0.5-0.8-1-1-1.7c-0.6-2.3-1.3-4-2.1-5.1c-0.8-1.1-1.8-1.6-3-1.6h-9.5c-1.5,0-2.2,0.8-2.2,2.3v19.2c0,1.8,0.4,3.1,1.2,4
			c0.8,0.8,2,1.2,3.8,1.2h9c3.1,0,5.6-0.8,7.4-2.3c2-1.6,3.9-4.3,5.8-8.1c0.4-0.8,1-1.2,1.9-1.2c0.7,0,1,0.7,1,2
			c0,1.2-0.2,2.5-0.5,4c-0.3,1.4-0.9,3.3-1.6,5.6l-1.1,3.9c-0.3,0.8-1.1,1.2-2.4,1.2l-4-0.1c-13.2-0.2-22.9-0.3-29.3-0.3
			c-2.3,0-4.8,0.1-7.4,0.3c-3.5,0.1-5.9,0.2-7.2,0.2C8.5,76.9,8.1,76.7,7.7,76.4z"/>
		<path d="M66.2,76.4c-0.3-0.3-0.5-0.7-0.5-1.1s0.2-0.8,0.6-1.2c0.4-0.4,0.9-0.7,1.5-0.9c2.4-0.7,4-1.4,4.8-2.2
			c0.8-0.8,1.3-2.2,1.3-4.2V20.6c0-2.2-0.4-3.7-1.2-4.6c-0.8-0.9-2.4-1.6-4.9-2.2c-1.4-0.3-2.1-1-2.1-2.1c0-0.5,0.2-0.9,0.6-1.2
			c0.4-0.3,0.9-0.5,1.5-0.5c2.4,0,5.1,0.1,8.1,0.4c2.7,0.3,4.8,0.4,6.4,0.4c1.4,0,3.3-0.1,5.9-0.4c3.2-0.4,6.3-0.6,9.2-0.6
			c8.3,0,14.5,1.2,18.6,3.5c4.1,2.3,6.1,6.2,6.1,11.6c0,2-0.5,4-1.5,5.8c-1,1.9-2.3,3.5-4,4.9c-2.2,1.9-4.7,3.1-7.5,3.7
			c-0.3,0.1-0.4,0.2-0.4,0.5c0,0.3,0.1,0.4,0.4,0.5c4.7,0.9,8.7,2.5,11.9,4.9c3.2,2.4,4.8,6.2,4.8,11.4c0,3.5-0.6,6.4-1.7,8.6
			c-1.1,2.2-2.4,3.9-3.9,5.1c-1.5,1.1-3.2,2.2-5.2,3.2c-4.4,2.1-10.3,3.1-17.7,3.1c-1.7,0-4.2-0.1-7.4-0.2c-3.2-0.1-5.7-0.2-7.5-0.2
			c-2.2,0-4.7,0.1-7.5,0.3c-3.4,0.1-5.7,0.2-7.1,0.2C67,76.9,66.5,76.7,66.2,76.4z M99.2,38.5c1.2-0.4,2.4-1.1,3.5-2.1
			c0.7-0.7,1.3-1.8,2-3.3c0.6-1.5,1-3.5,1-5.8c0-4.5-0.8-7.7-2.4-9.7c-1.6-2-4-3-7.1-3c-3.4,0-5.2,1.4-5.2,4.3v16.7
			c0,1.1,0.4,1.9,1.3,2.6c0.8,0.6,1.7,1,2.7,1C96.6,39.1,98,38.9,99.2,38.5z M102,69.1c1.6-1.2,2.9-2.8,3.8-4.8
			c0.9-2,1.4-4.3,1.4-6.8c0-5.1-1.5-8.8-4.6-11.3c-0.6-0.5-1.6-1-2.8-1.5c-1.3-0.5-2.7-0.7-4.4-0.7c-1.1,0-2.1,0.3-3,0.8
			c-0.9,0.5-1.4,1.4-1.4,2.4v17.4c0,2,0.5,3.6,1.5,4.7c1,1.1,2.4,1.6,4.3,1.6C98.7,70.9,100.4,70.3,102,69.1z"/>
		<path d="M173.3,73.6c-5.4-2.8-9.7-6.7-12.9-11.8s-4.7-10.8-4.7-17.3c0-6.1,1.6-11.9,4.7-17.4c3.1-5.4,7.6-9.8,13.5-13.1
			c5.8-3.3,12.6-4.9,20.3-4.9c2.8,0,6.3,0.4,10.5,1.1c4.2,0.7,7.5,1.6,9.9,2.5c1.3,0.5,2,1.5,2.2,2.7c0.8,5.5,1.2,9.6,1.2,12.3
			c0,0.7-0.2,1.2-0.5,1.5c-0.3,0.3-0.7,0.5-1.3,0.5c-0.7,0-1.3-0.2-1.7-0.5c-0.4-0.3-0.8-0.8-1.1-1.5c-1.8-3.8-3.5-6.6-5.3-8.3
			c-1.5-1.5-3.2-2.7-5.1-3.5c-1.9-0.8-4.3-1.3-7.1-1.3c-4.6,0-8.5,1.2-11.9,3.7c-3.3,2.5-5.8,5.7-7.4,9.8c-1.7,4.1-2.5,8.5-2.5,13.3
			c0,9.5,1.5,17,4.6,22.4c3.1,5.4,7.8,8.1,14.1,8.1c1.8,0,3.7-0.7,5.8-2.2c0.7-0.5,1.2-1.3,1.6-2.4c0.4-1.1,0.6-2.4,0.7-3.9
			c0.1-2.3,0.2-5.3,0.2-8.9c0-1.8-0.9-3-2.6-3.6c-2-0.8-4-1.4-5.8-1.8c-0.7-0.2-1.3-0.5-1.8-0.9c-0.5-0.4-0.8-0.9-0.8-1.4
			c0-0.5,0.2-0.8,0.7-1.1c0.4-0.3,1-0.4,1.6-0.4c2.6,0,5.4,0.1,8.4,0.3c3.9,0.1,6.5,0.2,7.7,0.2c1.3,0,3.4-0.1,6.4-0.2
			c3.1-0.1,5.4-0.2,6.9-0.2c1.1,0,1.6,0.5,1.6,1.5c0,0.6-0.2,1.1-0.5,1.4c-0.3,0.3-0.8,0.6-1.5,0.7c-2,0.5-3.3,1.1-4.1,1.8
			c-0.7,0.7-1.3,1.7-1.5,3.1c-0.5,2.3-0.7,4.8-0.7,7.6V65c0,0.4,0.2,0.8,0.7,1.3c0.4,0.4,0.7,0.7,0.8,0.8c0.7,0.7,1,1.4,1,2.2
			c0,0.5-0.2,1-0.5,1.5c-0.3,0.4-0.9,0.7-1.6,0.8c-0.5,0.1-1.4,0.4-2.8,1.1c-3,1.4-6.2,2.6-9.6,3.6c-3.4,1-7.3,1.5-11.9,1.5
			C184.8,77.8,178.8,76.4,173.3,73.6z"/>
		<path d="M231.7,75c-2.1-1.9-3.1-4.1-3.1-6.7c0-2.3,0.7-4.3,2.2-5.9c1.5-1.6,3.7-3.1,6.7-4.5l8.7-3.9c1.4-0.6,2.2-1.1,2.5-1.6
			c0.3-0.5,0.5-1.4,0.5-2.7l0.1-5.6c0.1-4.1-1.2-6.1-4.1-6.1c-0.8,0-1.7,0.2-2.5,0.6c-0.9,0.4-1.5,0.8-1.9,1.3
			c-0.3,0.4-0.5,1-0.5,1.9c0,0.5,0,1,0.1,1.6c0.1,0.6,0.1,1.1,0.1,1.6c0,0.7-1.2,1.5-3.5,2.6c-2.4,1-4.4,1.6-6,1.6
			c-0.5,0-1-0.2-1.4-0.7c-0.4-0.4-0.6-1-0.6-1.7c0-1.1,0.4-2.1,1.1-3.1c0.7-1,2-2.2,3.7-3.6c2.7-2.2,5.8-4,9.2-5.5
			c3.4-1.5,6.3-2.3,8.6-2.3c3.9,0,6.9,1.2,9.2,3.7c2.3,2.5,3.4,5.8,3.3,9.9l-0.5,19.7c-0.1,1.6,0.2,2.9,0.8,4
			c0.6,1.1,1.3,1.7,2.2,1.7c1.2,0,2.3-0.4,3.2-1.3c0.2-0.2,0.4-0.3,0.6-0.3c0.3,0,0.6,0.1,0.9,0.4c0.2,0.2,0.4,0.5,0.4,0.9
			c0,0.8-0.7,1.9-2,3.2c-2.6,2.6-5.5,3.9-8.8,3.9c-2.1,0-3.9-0.5-5.5-1.4c-1.6-0.9-3-2.4-4.4-4.5h-0.2c-2.2,2.2-4.2,3.7-6,4.6
			c-1.8,0.9-3.6,1.3-5.6,1.3C236.3,77.8,233.8,76.9,231.7,75z M248.2,69.5c0.4-0.5,0.6-1.3,0.6-2.3l0.3-7.8c0-0.9-0.3-1.4-1-1.4
			c-0.3,0-0.6,0.1-1,0.3c-1.9,1-3.2,2-3.9,2.9c-0.7,0.9-1.1,2.5-1.1,4.7c0,1.8,0.3,3,1,3.8c0.7,0.8,1.5,1.2,2.4,1.2
			C246.6,70.8,247.5,70.4,248.2,69.5z"/>
		<path d="M273.8,76.2c-0.4-0.3-0.6-0.7-0.6-1.1c0-0.9,0.8-1.7,2.3-2.1c1.5-0.5,2.5-1,3-1.5c0.5-0.5,0.8-1.3,0.8-2.4V45.6
			c0-1.4-0.2-2.5-0.6-3.3c-0.4-0.8-1.1-1.3-2.2-1.7c-0.5-0.1-0.8-0.3-1.1-0.6c-0.2-0.3-0.4-0.7-0.4-1.3c0-1,0.4-1.6,1.3-1.8
			c2.4-0.5,5-1.2,7.7-2.1c2.7-0.9,5-1.8,6.9-2.6c1.3-0.7,2.1-1.1,2.5-1.1c0.7,0,1,0.4,1,1.2l-0.1,3l-0.2,5.1c0,0.7,0.1,1,0.4,1
			c1.8-2.5,3.9-4.7,6.2-6.5c2.3-1.8,4.6-2.7,7-2.7c4.5,0,6.8,1.7,6.8,5.1c0,1.8-0.7,3.6-2,5.5c-1.4,1.9-2.8,2.9-4.3,2.9
			c-0.6,0-1.3-0.2-2-0.5c-0.7-0.3-1.5-0.7-2.2-1.1c-1.9-0.9-3.2-1.4-3.9-1.4c-2,0-3.5,0.7-4.6,2.2c-1.1,1.5-1.7,4-1.7,7.6v15.6
			c0,1.4,0.4,2.5,1.2,3.1c0.8,0.7,2.1,1.3,4.1,1.9c1.5,0.4,2.2,1.1,2.2,2c0,0.4-0.2,0.8-0.5,1.1c-0.3,0.3-0.7,0.5-1.2,0.5
			c-2.2,0-4.5-0.1-6.9-0.3c-3-0.1-5-0.2-6.1-0.2c-1.1,0-2.9,0.1-5.5,0.2c-2,0.2-4.1,0.3-6.2,0.3C274.7,76.7,274.2,76.5,273.8,76.2z"
			/>
		<path d="M320.8,75c-2.1-1.9-3.1-4.1-3.1-6.7c0-2.3,0.7-4.3,2.2-5.9c1.5-1.6,3.7-3.1,6.7-4.5l8.7-3.9c1.4-0.6,2.2-1.1,2.5-1.6
			c0.3-0.5,0.5-1.4,0.5-2.7l0.1-5.6c0.1-4.1-1.2-6.1-4.1-6.1c-0.8,0-1.7,0.2-2.5,0.6c-0.9,0.4-1.5,0.8-1.9,1.3
			c-0.3,0.4-0.5,1-0.5,1.9c0,0.5,0,1,0.1,1.6c0.1,0.6,0.1,1.1,0.1,1.6c0,0.7-1.2,1.5-3.5,2.6c-2.4,1-4.4,1.6-6,1.6
			c-0.5,0-1-0.2-1.4-0.7c-0.4-0.4-0.6-1-0.6-1.7c0-1.1,0.4-2.1,1.1-3.1c0.7-1,2-2.2,3.7-3.6c2.7-2.2,5.8-4,9.2-5.5
			c3.4-1.5,6.3-2.3,8.6-2.3c3.9,0,6.9,1.2,9.2,3.7c2.3,2.5,3.4,5.8,3.3,9.9l-0.5,19.7c-0.1,1.6,0.2,2.9,0.8,4
			c0.6,1.1,1.3,1.7,2.2,1.7c1.2,0,2.3-0.4,3.2-1.3c0.2-0.2,0.4-0.3,0.6-0.3c0.3,0,0.6,0.1,0.9,0.4c0.2,0.2,0.4,0.5,0.4,0.9
			c0,0.8-0.7,1.9-2,3.2c-2.6,2.6-5.5,3.9-8.8,3.9c-2.1,0-3.9-0.5-5.5-1.4c-1.6-0.9-3-2.4-4.4-4.5h-0.2c-2.2,2.2-4.2,3.7-6,4.6
			c-1.8,0.9-3.6,1.3-5.6,1.3C325.3,77.8,322.8,76.9,320.8,75z M337.2,69.5c0.4-0.5,0.6-1.3,0.6-2.3l0.3-7.8c0-0.9-0.3-1.4-1-1.4
			c-0.3,0-0.6,0.1-1,0.3c-1.9,1-3.2,2-3.9,2.9c-0.7,0.9-1.1,2.5-1.1,4.7c0,1.8,0.3,3,1,3.8c0.7,0.8,1.5,1.2,2.4,1.2
			C335.7,70.8,336.5,70.4,337.2,69.5z"/>
		<path d="M362.9,76.2c-0.4-0.3-0.7-0.7-0.7-1.1c0-0.9,0.8-1.6,2.3-2.1c1.3-0.4,2.2-0.8,2.8-1.3c0.6-0.5,0.9-1.3,0.9-2.5V45.7
			c0-3.2-1-4.9-2.9-5.3c-0.8-0.1-1.2-0.8-1.2-1.9c0-1,0.4-1.6,1.1-1.8c7.9-2,13.3-3.7,16.2-5.4c0.7-0.4,1.1-0.6,1.3-0.6
			c0.7,0,1,0.4,1,1.2l-0.2,2.2c-0.2,2.4-0.3,3.7-0.3,3.7c0,0.7,0.1,1.1,0.2,1.2h0.2c2.3-2.2,4.6-3.9,7-5.1c2.4-1.2,5-1.8,7.9-1.8
			c2,0,3.9,0.8,5.7,2.3c1.8,1.5,3.1,3.4,4,5.7h0.5c4.2-5.3,9.2-8,15.1-8c3.2,0,6,1.3,8.2,3.9c2.2,2.6,3.3,6.2,3.3,10.7v22.5
			c0,1.2,0.3,2,0.9,2.5c0.6,0.4,1.5,0.9,2.9,1.3c1.4,0.5,2,1.2,2,2.1c0,0.4-0.2,0.8-0.6,1.1c-0.4,0.3-0.8,0.5-1.2,0.5
			c-2.1,0-4.1-0.1-6.1-0.3c-2.4-0.1-4.2-0.2-5.3-0.2c-1,0-2.6,0.1-4.8,0.2c-1.6,0.2-3.4,0.3-5.4,0.3c-0.4,0-0.8-0.2-1.1-0.5
			c-0.3-0.3-0.5-0.7-0.5-1.1c0-0.9,0.6-1.7,1.9-2.1c0.9-0.3,1.5-0.6,1.9-1c0.4-0.4,0.6-1.1,0.6-2V49.3c0-2.4-0.5-4.4-1.4-5.8
			c-0.9-1.4-2.1-2.2-3.7-2.2c-0.7,0-1.6,0.2-2.5,0.6c-0.9,0.4-1.9,1-2.7,1.7c-0.4,0.4-0.7,0.9-0.9,1.4c-0.2,0.5-0.3,1.2-0.3,2.2
			v22.1c0,1.3,0.2,2.1,0.6,2.6c0.4,0.4,1.1,0.8,2.2,1.2c1.4,0.5,2,1.2,2,2.1c0,0.4-0.2,0.8-0.6,1.1c-0.4,0.3-0.8,0.5-1.2,0.5
			c-2,0-3.9-0.1-5.5-0.3c-2.2-0.1-3.8-0.2-4.9-0.2c-1,0-2.6,0.1-4.8,0.2c-1.6,0.2-3.4,0.3-5.4,0.3c-0.4,0-0.8-0.2-1.1-0.5
			c-0.3-0.3-0.5-0.7-0.5-1.1c0-0.9,0.6-1.7,1.9-2.1c0.9-0.3,1.5-0.6,1.9-1c0.4-0.4,0.6-1.1,0.6-2V49.3c0-2.4-0.4-4.3-1.3-5.7
			c-0.9-1.4-2.1-2.1-3.6-2.2c-1.7,0-3.5,0.7-5.5,2.1c-0.7,0.5-1,1.6-1,3.2v22.5c0,1.2,0.2,2.1,0.5,2.6c0.3,0.5,1,0.9,2,1.2
			c1.3,0.5,1.9,1.2,1.9,2.1c0,0.4-0.2,0.8-0.5,1.1c-0.3,0.3-0.7,0.5-1.1,0.5c-2,0-3.9-0.1-5.5-0.3c-2-0.1-3.6-0.2-4.8-0.2
			c-1.1,0-2.8,0.1-5.3,0.2c-1.9,0.2-3.9,0.3-6,0.3C363.8,76.7,363.3,76.5,362.9,76.2z"/>
		<path d="M455.6,75.1c-3.4-1.8-6-4.4-8-7.7c-1.9-3.3-2.9-6.9-2.9-11c0-4.4,1.1-8.4,3.2-12.2c2.2-3.7,5.1-6.7,8.8-8.9
			c3.7-2.2,7.8-3.3,12.2-3.3c4.1,0,7.9,1,11.4,2.9c3.5,2,6.2,4.6,8.3,7.9c2,3.3,3,6.8,3,10.6c0,4.5-0.9,8.6-2.8,12.3
			c-1.9,3.7-4.7,6.6-8.5,8.8c-3.7,2.2-8.3,3.2-13.6,3.2C462.7,77.8,458.9,76.9,455.6,75.1z M474,70.1c1.5-2.5,2.2-7.2,2.2-14.2
			c0-5.6-0.8-10.2-2.4-13.7c-1.6-3.5-3.7-5.3-6.4-5.3c-1.8,0-3.2,0.6-4.4,1.7c-1.1,1.1-1.9,3-2.4,5.4c-0.4,2.5-0.7,5.8-0.7,9.9
			c0,3.2,0.4,6.3,1.1,9.3c0.7,2.9,1.8,5.3,3.1,7.1c1.3,1.8,2.8,2.7,4.4,2.7C471,73,472.8,72.1,474,70.1z"/>
		<path d="M496.5,76.2c-0.4-0.3-0.7-0.7-0.7-1.1c0-0.9,0.8-1.6,2.3-2.1c1.3-0.4,2.2-0.8,2.8-1.3c0.6-0.5,0.9-1.3,0.9-2.5V45.7
			c0-3.2-1-4.9-3-5.3c-0.3-0.1-0.5-0.3-0.8-0.6c-0.2-0.3-0.4-0.8-0.4-1.3c0-1,0.3-1.6,1-1.8c2.6-0.6,5.3-1.4,8.3-2.3
			c3-0.9,5.4-1.8,7.3-2.8c0.1-0.1,0.4-0.2,0.9-0.5c0.5-0.3,0.8-0.4,1.1-0.4c0.7,0,1,0.4,1,1.3l-0.2,2.1c-0.2,2.2-0.3,3.4-0.3,3.5
			c0,0.9,0.1,1.4,0.2,1.5c2.6-2.4,5-4.1,7.2-5.3c2.2-1.1,4.8-1.7,7.7-1.7c3.7,0,6.8,1.3,9.1,4c2.4,2.6,3.5,6.2,3.5,10.6v22.5
			c0,1.2,0.3,2,0.9,2.5c0.6,0.4,1.5,0.9,2.9,1.3c1.4,0.5,2,1.2,2,2.1c0,0.4-0.2,0.8-0.6,1.1c-0.4,0.3-0.8,0.5-1.2,0.5
			c-2.1,0-4.1-0.1-6.1-0.3c-2.4-0.1-4.2-0.2-5.3-0.2c-1.1,0-2.9,0.1-5.2,0.2c-1.9,0.2-3.9,0.3-6,0.3c-0.4,0-0.8-0.2-1.1-0.5
			c-0.3-0.3-0.5-0.7-0.5-1.1c0-0.9,0.6-1.7,1.9-2.1c1.3-0.4,2.2-0.8,2.7-1.3c0.5-0.4,0.8-1.3,0.8-2.5v-20c0-2.5-0.5-4.5-1.6-5.9
			c-1.1-1.4-2.5-2.1-4.3-2.1c-1.2,0-2.3,0.2-3.3,0.6c-1,0.4-2.1,1-3.3,1.8c-0.5,0.3-0.8,0.9-0.8,1.8v23.8c0,1.2,0.3,2,0.8,2.4
			c0.5,0.4,1.4,0.8,2.7,1.3c1.3,0.5,1.9,1.2,1.9,2.1c0,0.4-0.2,0.8-0.5,1.1c-0.3,0.3-0.7,0.5-1.1,0.5c-2,0-4-0.1-5.8-0.3
			c-2.3-0.1-4-0.2-5.1-0.2c-1.1,0-2.9,0.1-5.5,0.2c-2,0.2-4.1,0.3-6.2,0.3C497.3,76.7,496.9,76.5,496.5,76.2z"/>
		<path d="M607,70.1c0.3,0,0.6,0.1,0.7,0.2c0.1,0.1,0.2,0.4,0.2,0.9c0,0.5-0.2,1.1-0.7,1.8c-0.4,0.6-0.8,1-1.2,1
			c-5.8,0.7-11.2,1.9-16.1,3.7c-0.8,0.4-1.4,0.6-1.8,0.6c-0.2,0-0.5-0.2-0.9-0.7c-0.4-0.5-0.6-0.8-0.6-1.1c0.3-1.5,0.5-3.2,0.6-5.3
			v-0.6c-1.5,2.2-3.4,4-5.9,5.3s-5,1.9-7.6,1.9c-3.6,0-7-0.9-10-2.8c-3-1.9-5.4-4.4-7.1-7.6c-1.7-3.2-2.6-6.9-2.6-10.8
			c0-4.7,1-8.8,3.1-12.5c2.1-3.6,5-6.5,8.7-8.5c3.7-2,8-3,12.8-3c2,0,4,0.3,6,0.8l1.3,0.3c0.3,0,0.4-0.4,0.4-1.1V21.1
			c0-2.4-0.3-4.2-0.8-5.3c-0.5-1.1-1.5-1.8-2.9-2c-0.8-0.2-1.2-0.7-1.2-1.6c0-0.9,0.4-1.4,1.1-1.5c2.4-0.5,5.1-1.2,8-2.1
			c2.9-0.9,5.3-1.8,7.1-2.6c1.5-0.7,2.4-1,2.6-1c0.3,0,0.6,0.1,0.9,0.4c0.2,0.2,0.4,0.5,0.4,0.9c-0.1,0.3-0.2,1-0.3,2.1
			c-0.1,1.1-0.2,2.3-0.3,3.5L600.4,64c0,2.4,0.2,4,0.5,5c0.3,0.9,0.9,1.4,1.8,1.4l4-0.3H607z M583,69.8c1.4-0.5,2.5-1.1,3.3-1.9
			l-0.1-23.4c0-0.9-0.4-2-1.3-3.1c-0.9-1.1-2-2-3.3-2.8c-1.3-0.7-2.5-1.1-3.6-1.1c-2.4,0-4.4,1.5-6,4.6c-1.6,3-2.4,6.9-2.4,11.7
			c0,4.9,0.9,9,2.7,12.1c1.8,3.1,4.2,4.7,7,4.7C580.4,70.5,581.6,70.3,583,69.8z"/>
	</g>
</g>
<g id="ebg-stroke">
	<path id="e-top-out_1_" class="st0" d="M15.3,43.1V20.6c0-2.2-0.4-3.7-1.2-4.6c-0.8-0.9-2.4-1.6-4.9-2.2c-1.4-0.3-2.1-1-2.1-2.1
		c0-0.5,0.2-0.9,0.6-1.2C8,10.2,8.5,10,9.1,10c2.4,0,5,0.1,7.6,0.3c3.4,0.1,5.7,0.2,7,0.2c9.1,0,16.9-0.1,23.6-0.3
		c2.1,0,3.9-0.1,5.3-0.4c1.5-0.3,2.3-0.4,2.5-0.4c0.6,0,1.2,0.2,1.7,0.5c0.5,0.3,0.8,0.9,0.9,1.6c0.2,2.2,0.5,4.3,0.9,6.2
		c0.5,3.8,0.8,6.3,0.8,7.5c0,0.6-0.1,1.1-0.4,1.5c-0.2,0.4-0.6,0.6-1,0.6"/>
	<path id="e-bottom-out_1_" class="st0" d="M61.6,60.2c0.7,0,1,0.7,1,2c0,1.2-0.2,2.5-0.5,4c-0.3,1.4-0.9,3.3-1.6,5.6l-1.1,3.9
		c-0.3,0.8-1.1,1.2-2.4,1.2l-4-0.1c-13.2-0.2-22.9-0.3-29.3-0.3c-2.3,0-4.8,0.1-7.4,0.3c-3.5,0.1-5.9,0.2-7.2,0.2
		c-0.6,0-1.1-0.2-1.4-0.5c-0.3-0.3-0.5-0.7-0.5-1.1s0.2-0.8,0.6-1.2c0.4-0.4,0.9-0.7,1.5-0.9c2.4-0.7,4-1.4,4.8-2.2
		c0.8-0.8,1.3-2.2,1.3-4.2V43.1"/>
	<path id="e-bottom-inner_1_" class="st0" d="M52.5,43c0,2.9,0.1,5.7,0.4,8.4v0.8c0,1.4-0.3,2-1,2c-0.5,0-0.9-0.2-1.4-0.7
		c-0.5-0.5-0.8-1-1-1.7c-0.6-2.3-1.3-4-2.1-5.1c-0.8-1.1-1.8-1.6-3-1.6h-9.5c-1.5,0-2.2,0.8-2.2,2.3v19.2c0,1.8,0.4,3.1,1.2,4
		c0.8,0.8,2,1.2,3.8,1.2h9c3.1,0,5.6-0.8,7.4-2.3c2-1.6,3.9-4.3,5.8-8.1c0.4-0.8,1-1.2,1.9-1.2"/>
	<path id="e-top-inner_1_" class="st0" d="M58.2,27.2c-0.4,0-0.8-0.2-1.2-0.5c-0.4-0.3-0.7-0.7-1-1.3c-1-2.5-1.8-4.2-2.2-5.2
		c-0.5-0.9-1-1.8-1.7-2.4c-0.9-0.9-2-1.7-3.1-2.3c-1.1-0.6-2.6-0.9-4.3-0.9h-6.4c-1.7,0-3.1,0.4-4.2,1.3c-1.1,0.8-1.6,2-1.6,3.4V38
		c0,1.6,0.9,2.4,2.6,2.4h8.6c1.6,0,2.7-0.5,3.5-1.5c0.8-1,1.6-2.6,2.4-4.8c0.5-1.2,1.2-1.8,2.1-1.8c0.3,0,0.6,0.2,0.9,0.7
		c0.3,0.4,0.4,1,0.3,1.7c-0.3,3.2-0.5,6-0.5,8.4"/>
	<path id="b-left" class="st0" d="M65.7,75.3c0-0.4,0.2-0.8,0.6-1.2c0.4-0.4,0.9-0.7,1.5-0.9c2.4-0.7,4-1.4,4.8-2.2
		c0.8-0.8,1.3-2.2,1.3-4.2V20.6c0-2.2-0.4-3.7-1.2-4.6c-0.8-0.9-2.4-1.6-4.9-2.2c-1.4-0.3-2.1-1-2.1-2.1"/>
	<path id="b-bottom_1_" class="st0" d="M108.5,39.9c0,0.3,0.1,0.4,0.4,0.5c4.7,0.9,8.7,2.5,11.9,4.9c3.2,2.4,4.8,6.2,4.8,11.4
		c0,3.5-0.6,6.4-1.7,8.6c-1.1,2.2-2.4,3.9-3.9,5.1c-1.5,1.1-3.2,2.2-5.2,3.2c-4.4,2.1-10.3,3.1-17.7,3.1c-1.7,0-4.2-0.1-7.4-0.2
		c-3.2-0.1-5.7-0.2-7.5-0.2c-2.2,0-4.7,0.1-7.5,0.3c-3.4,0.1-5.7,0.2-7.1,0.2c-0.6,0-1.1-0.2-1.4-0.5c-0.3-0.3-0.5-0.7-0.5-1.1"/>
	<path id="b-top_1_" class="st0" d="M65.3,12.1c0-0.5,0.2-0.9,0.5-1.2c0.4-0.3,0.9-0.5,1.5-0.5c2.4,0,5.1,0,8.1,0.3
		c2.7,0.2,4.8,0.3,6.4,0.3c1.3,0,3.3-0.2,5.9-0.5c3.2-0.5,6.3-0.7,9.2-0.8c8.3-0.2,14.5,0.9,18.7,3.2c4.1,2.3,6.2,6.1,6.3,11.5
		c0,2-0.4,4-1.4,5.9c-0.9,1.9-2.3,3.5-3.9,5c-2.2,1.9-4.7,3.2-7.4,3.9c-0.3,0.1-0.4,0.2-0.4,0.5"/>
	<path id="b-inner-top" class="st0" d="M91,18.8c0-2.8,1.7-4.3,5.2-4.3c3.2,0,5.6,1,7.1,3c1.6,2,2.4,5.2,2.4,9.7
		c0,2.4-0.3,4.3-1,5.8c-0.6,1.5-1.3,2.6-2,3.3c-1.1,1-2.3,1.7-3.5,2.1c-1.2,0.4-2.6,0.6-4.3,0.6c-0.9,0-1.8-0.3-2.7-1
		c-0.8-0.6-1.3-1.5-1.3-2.6V18.8"/>
	<path id="b-inner-bottom_1_" class="st0" d="M91,47.2v17.4c0,2,0.5,3.6,1.5,4.7c1,1.1,2.4,1.6,4.3,1.6c1.9,0,3.6-0.6,5.2-1.8
		c1.6-1.2,2.9-2.8,3.8-4.8c0.9-2,1.4-4.3,1.4-6.8c0-5.1-1.5-8.8-4.6-11.3c-0.6-0.5-1.6-1-2.8-1.5c-1.3-0.5-2.7-0.7-4.4-0.7
		c-1.1,0-2.1,0.3-3,0.8C91.5,45.3,91,46.1,91,47.2"/>
	<path id="g-inner" class="st0" d="M216.3,29.8c-0.7,0-1.3-0.2-1.7-0.5c-0.4-0.3-0.8-0.8-1.1-1.5c-1.8-3.8-3.5-6.6-5.3-8.3
		c-1.5-1.5-3.2-2.7-5.1-3.5c-1.9-0.8-4.3-1.3-7.1-1.3c-4.6,0-8.5,1.2-11.9,3.7c-3.3,2.5-5.8,5.7-7.4,9.8c-1.7,4.1-2.5,8.5-2.5,13.3
		c0,9.5,1.5,17,4.6,22.4c3.1,5.4,7.8,8.1,14.1,8.1c1.8,0,3.7-0.7,5.8-2.2c0.7-0.5,1.2-1.3,1.6-2.4c0.4-1.1,0.6-2.4,0.7-3.9
		c0.1-2.3,0.2-5.3,0.2-8.9c0-1.8-0.9-3-2.6-3.6c-2-0.8-4-1.4-5.8-1.8c-0.7-0.2-1.3-0.5-1.8-0.9c-0.5-0.4-0.8-0.9-0.8-1.4"/>
	<path id="g-out_1_" class="st0" d="M190.3,46.8c0-0.5,0.2-0.8,0.7-1.1c0.4-0.3,1-0.4,1.6-0.4c2.6,0,5.4,0.1,8.4,0.3
		c3.9,0.1,6.5,0.2,7.7,0.2c1.3,0,3.4-0.1,6.4-0.2c3.1-0.1,5.4-0.2,6.9-0.2c1.1,0,1.6,0.5,1.6,1.5c0,0.6-0.2,1.1-0.5,1.4
		c-0.3,0.3-0.8,0.6-1.5,0.7c-2,0.5-3.3,1.1-4.1,1.8c-0.7,0.7-1.3,1.7-1.5,3.1c-0.5,2.3-0.7,4.8-0.7,7.6V65c0,0.4,0.2,0.8,0.7,1.3
		c0.4,0.4,0.7,0.7,0.8,0.8c0.7,0.7,1,1.4,1,2.2c0,0.5-0.2,1-0.5,1.5c-0.3,0.4-0.9,0.7-1.6,0.8c-0.5,0.1-1.4,0.4-2.8,1.1
		c-3,1.4-6.2,2.6-9.6,3.6c-3.4,1-7.3,1.5-11.9,1.5c-6.6,0-12.5-1.4-18-4.2c-5.4-2.8-9.7-6.7-12.9-11.8s-4.7-10.8-4.7-17.3
		c0-6.1,1.6-11.9,4.7-17.4c3.1-5.4,7.6-9.8,13.5-13.1c5.8-3.3,12.6-4.9,20.3-4.9c2.8,0,6.3,0.4,10.5,1.1c4.2,0.7,7.5,1.6,9.9,2.5
		c1.3,0.5,2,1.5,2.2,2.7c0.8,5.5,1.2,9.6,1.2,12.3c0,0.7-0.2,1.2-0.5,1.5c-0.3,0.3-0.7,0.5-1.3,0.5"/>
	<path id="a-left-inner" class="st0" d="M248.8,52.5c0.3-0.5,0.5-1.4,0.5-2.7l0.1-5.6c0.1-4.1-1.2-6.1-4.1-6.1
		c-0.8,0-1.7,0.2-2.5,0.6c-0.9,0.4-1.5,0.8-1.9,1.3c-0.3,0.4-0.5,1-0.5,1.9c0,0.5,0,1,0.1,1.6c0.1,0.6,0.1,1.1,0.1,1.6
		c0,0.7-1.2,1.5-3.5,2.6c-2.4,1-4.4,1.6-6,1.6c-0.5,0-1-0.2-1.4-0.7"/>
	<path id="a-bottom-left_1_" class="st0" d="M251,71.9h-0.2c-2.2,2.2-4.2,3.7-6,4.6c-1.8,0.9-3.6,1.3-5.6,1.3c-3,0-5.5-0.9-7.5-2.8
		c-2.1-1.9-3.1-4.1-3.1-6.7c0-2.3,0.7-4.3,2.2-5.9c1.5-1.6,3.7-3.1,6.7-4.5l8.7-3.9c1.4-0.6,2.2-1.1,2.5-1.6"/>
	<path id="a-bottom-right_1_" class="st0" d="M271.3,69.8c0.2,0.2,0.4,0.5,0.4,0.9c0,0.8-0.7,1.9-2,3.2c-2.6,2.6-5.5,3.9-8.8,3.9
		c-2.1,0-3.9-0.5-5.5-1.4c-1.6-0.9-3-2.4-4.4-4.5"/>
	<path id="a-top_1_" class="st0" d="M229.7,48.5c-0.4-0.4-0.6-1-0.6-1.7c0-1.1,0.4-2.1,1.1-3.1c0.7-1,2-2.2,3.7-3.6
		c2.7-2.2,5.8-4,9.2-5.5c3.4-1.5,6.3-2.3,8.6-2.3c3.9,0,6.9,1.2,9.2,3.7c2.3,2.5,3.4,5.8,3.3,9.9l-0.5,19.7c-0.1,1.6,0.2,2.9,0.8,4
		c0.6,1.1,1.3,1.7,2.2,1.7c1.2,0,2.3-0.4,3.2-1.3c0.2-0.2,0.4-0.3,0.6-0.3c0.3,0,0.6,0.1,0.9,0.4"/>
	<path id="a-inner_1_" class="st0" d="M248.2,69.5c0.4-0.5,0.6-1.3,0.6-2.3l0.3-7.8c0-0.9-0.3-1.4-1-1.4c-0.3,0-0.6,0.1-1,0.3
		c-1.9,1-3.2,2-3.9,2.9c-0.7,0.9-1.1,2.5-1.1,4.7c0,1.8,0.3,3,1,3.8c0.7,0.8,1.5,1.2,2.4,1.2C246.6,70.8,247.5,70.4,248.2,69.5"/>
	<path id="r-left_1_" class="st0" d="M286.9,76.2c-1.1,0-2.9,0.1-5.5,0.2c-2,0.2-4.1,0.3-6.2,0.3c-0.5,0-1-0.2-1.4-0.5
		c-0.4-0.3-0.6-0.7-0.6-1.1c0-0.9,0.8-1.7,2.3-2.1c1.5-0.5,2.5-1,3-1.5c0.5-0.5,0.8-1.3,0.8-2.4V45.6c0-1.4-0.2-2.5-0.6-3.3
		c-0.4-0.8-1.1-1.3-2.2-1.7c-0.5-0.1-0.8-0.3-1.1-0.6c-0.2-0.3-0.4-0.7-0.4-1.3c0-1,0.4-1.6,1.3-1.8c2.4-0.5,5-1.2,7.7-2.1
		c2.7-0.9,5-1.8,6.9-2.6c1.3-0.7,2.1-1.1,2.5-1.1c0.7,0,1,0.4,1,1.2l-0.1,3l-0.2,5.1c0,0.7,0.1,1,0.4,1"/>
	<path id="r-right_1_" class="st0" d="M294.7,41.3c1.8-2.5,3.9-4.7,6.2-6.5c2.3-1.8,4.6-2.7,7-2.7c4.5,0,6.8,1.7,6.8,5.1
		c0,1.8-0.7,3.6-2,5.5c-1.4,1.9-2.8,2.9-4.3,2.9c-0.6,0-1.3-0.2-2-0.5c-0.7-0.3-1.5-0.7-2.2-1.1c-1.9-0.9-3.2-1.4-3.9-1.4
		c-2,0-3.5,0.7-4.6,2.2c-1.1,1.5-1.7,4-1.7,7.6v15.6c0,1.4,0.4,2.5,1.2,3.1c0.8,0.7,2.1,1.3,4.1,1.9c1.5,0.4,2.2,1.1,2.2,2
		c0,0.4-0.2,0.8-0.5,1.1c-0.3,0.3-0.7,0.5-1.2,0.5c-2.2,0-4.5-0.1-6.9-0.3c-3-0.1-5-0.2-6.1-0.2"/>
	<path id="a2-left-inner_1_" class="st0" d="M337.8,52.5c0.3-0.5,0.5-1.4,0.5-2.7l0.1-5.6c0.1-4.1-1.2-6.1-4.1-6.1
		c-0.8,0-1.7,0.2-2.5,0.6c-0.9,0.4-1.5,0.8-1.9,1.3c-0.3,0.4-0.5,1-0.5,1.9c0,0.5,0,1,0.1,1.6c0.1,0.6,0.1,1.1,0.1,1.6
		c0,0.7-1.2,1.5-3.5,2.6c-2.4,1-4.4,1.6-6,1.6c-0.5,0-1-0.2-1.4-0.7"/>
	<path id="a2-left-bottom_1_" class="st0" d="M340.1,71.9h-0.2c-2.2,2.2-4.2,3.7-6,4.6c-1.8,0.9-3.6,1.3-5.6,1.3
		c-3,0-5.5-0.9-7.5-2.8c-2.1-1.9-3.1-4.1-3.1-6.7c0-2.3,0.7-4.3,2.2-5.9c1.5-1.6,3.7-3.1,6.7-4.5l8.7-3.9c1.4-0.6,2.2-1.1,2.5-1.6"
		/>
	<path id="a2-right-bottom_1_" class="st0" d="M360.4,69.8c0.2,0.2,0.4,0.5,0.4,0.9c0,0.8-0.7,1.9-2,3.2c-2.6,2.6-5.5,3.9-8.8,3.9
		c-2.1,0-3.9-0.5-5.5-1.4c-1.6-0.9-3-2.4-4.4-4.5"/>
	<path id="a2-top_1_" class="st0" d="M318.7,48.5c-0.4-0.4-0.6-1-0.6-1.7c0-1.1,0.4-2.1,1.1-3.1c0.7-1,2-2.2,3.7-3.6
		c2.7-2.2,5.8-4,9.2-5.5c3.4-1.5,6.3-2.3,8.6-2.3c3.9,0,6.9,1.2,9.2,3.7c2.3,2.5,3.4,5.8,3.3,9.9l-0.5,19.7c-0.1,1.6,0.2,2.9,0.8,4
		c0.6,1.1,1.3,1.7,2.2,1.7c1.2,0,2.3-0.4,3.2-1.3c0.2-0.2,0.4-0.3,0.6-0.3c0.3,0,0.6,0.1,0.9,0.4"/>
	<path id="a2-inner_1_" class="st0" d="M337.2,69.5c0.4-0.5,0.6-1.3,0.6-2.3l0.3-7.8c0-0.9-0.3-1.4-1-1.4c-0.3,0-0.6,0.1-1,0.3
		c-1.9,1-3.2,2-3.9,2.9c-0.7,0.9-1.1,2.5-1.1,4.7c0,1.8,0.3,3,1,3.8c0.7,0.8,1.5,1.2,2.4,1.2C335.7,70.8,336.5,70.4,337.2,69.5"/>
	<path id="m-left_1_" class="st0" d="M375.5,76.2c-1.1,0-2.8,0.1-5.3,0.2c-1.9,0.2-3.9,0.3-6,0.3c-0.5,0-0.9-0.2-1.4-0.5
		c-0.4-0.3-0.7-0.7-0.7-1.1c0-0.9,0.8-1.6,2.3-2.1c1.3-0.4,2.2-0.8,2.8-1.3c0.6-0.5,0.9-1.3,0.9-2.5V45.7c0-3.2-1-4.9-2.9-5.3
		c-0.8-0.1-1.2-0.8-1.2-1.9c0-1,0.4-1.6,1.1-1.8c7.9-2,13.3-3.7,16.2-5.4c0.7-0.4,1.1-0.6,1.3-0.6c0.7,0,1,0.4,1,1.2l-0.2,2.2
		c-0.2,2.4-0.3,3.7-0.3,3.7c0,0.7,0.1,1.1,0.2,1.2"/>
	<path id="m-left-inner_1_" class="st0" d="M383,46.8v22.5c0,1.2,0.2,2.1,0.5,2.6c0.3,0.5,1,0.9,2,1.2c1.3,0.5,1.9,1.2,1.9,2.1
		c0,0.4-0.2,0.8-0.5,1.1c-0.3,0.3-0.7,0.5-1.1,0.5c-2,0-3.9-0.1-5.5-0.3c-2-0.1-3.6-0.2-4.8-0.2"/>
	<path id="m-middle-left_1_" class="st0" d="M401.9,76.2c-1,0-2.6,0.1-4.8,0.2c-1.6,0.2-3.4,0.3-5.4,0.3c-0.4,0-0.8-0.2-1.1-0.5
		c-0.3-0.3-0.5-0.7-0.5-1.1c0-0.9,0.6-1.7,1.9-2.1c0.9-0.3,1.5-0.6,1.9-1c0.4-0.4,0.6-1.1,0.6-2V49.3c0-2.4-0.4-4.3-1.3-5.7
		c-0.9-1.4-2.1-2.1-3.6-2.2c-1.7,0-3.5,0.7-5.5,2.1c-0.7,0.5-1,1.6-1,3.2"/>
	<path id="m-middle-right_1_" class="st0" d="M409.2,47.2v22.1c0,1.3,0.2,2.1,0.6,2.6c0.4,0.4,1.1,0.8,2.2,1.2c1.4,0.5,2,1.2,2,2.1
		c0,0.4-0.2,0.8-0.6,1.1c-0.4,0.3-0.8,0.5-1.2,0.5c-2,0-3.9-0.1-5.5-0.3c-2.2-0.1-3.8-0.2-4.9-0.2"/>
	<path id="m-right-inner_1_" class="st0" d="M428,76.2c-1,0-2.6,0.1-4.8,0.2c-1.6,0.2-3.4,0.3-5.4,0.3c-0.4,0-0.8-0.2-1.1-0.5
		c-0.3-0.3-0.5-0.7-0.5-1.1c0-0.9,0.6-1.7,1.9-2.1c0.9-0.3,1.5-0.6,1.9-1c0.4-0.4,0.6-1.1,0.6-2V49.3c0-2.4-0.5-4.4-1.4-5.8
		c-0.9-1.4-2.1-2.2-3.7-2.2c-0.7,0-1.6,0.2-2.5,0.6c-0.9,0.4-1.9,1-2.7,1.7c-0.4,0.4-0.7,0.9-0.9,1.4c-0.2,0.5-0.3,1.2-0.3,2.2"/>
	<path id="m-right_1_" class="st0" d="M383.5,39.1h0.2c2.3-2.2,4.6-3.9,7-5.1c2.4-1.2,5-1.8,7.9-1.8c2,0,3.9,0.8,5.7,2.3
		c1.8,1.5,3.1,3.4,4,5.7h0.5c4.2-5.3,9.2-8,15.1-8c3.2,0,6,1.3,8.2,3.9c2.2,2.6,3.3,6.2,3.3,10.7v22.5c0,1.2,0.3,2,0.9,2.5
		c0.6,0.4,1.5,0.9,2.9,1.3c1.4,0.5,2,1.2,2,2.1c0,0.4-0.2,0.8-0.6,1.1c-0.4,0.3-0.8,0.5-1.2,0.5c-2.1,0-4.1-0.1-6.1-0.3
		c-2.4-0.1-4.2-0.2-5.3-0.2"/>
	<path id="o-outer_1_" class="st0" d="M466.7,77.8c-4.1,0-7.8-0.9-11.1-2.7c-3.4-1.8-6-4.4-8-7.7c-1.9-3.3-2.9-6.9-2.9-11
		c0-4.4,1.1-8.4,3.2-12.2c2.2-3.7,5.1-6.7,8.8-8.9c3.7-2.2,7.8-3.3,12.2-3.3c4.1,0,7.9,1,11.4,2.9c3.5,2,6.2,4.6,8.3,7.9
		c2,3.3,3,6.8,3,10.6c0,4.5-0.9,8.6-2.8,12.3c-1.9,3.7-4.7,6.6-8.5,8.8C476.6,76.7,472,77.8,466.7,77.8"/>
	<path id="o-inner_1_" class="st0" d="M467.4,36.9c-1.8,0-3.2,0.6-4.4,1.7c-1.1,1.1-1.9,3-2.4,5.4c-0.4,2.5-0.7,5.8-0.7,9.9
		c0,3.2,0.4,6.3,1.1,9.3c0.7,2.9,1.8,5.3,3.1,7.1c1.3,1.8,2.8,2.7,4.4,2.7c2.4,0,4.2-1,5.4-2.9c1.5-2.5,2.2-7.2,2.2-14.2
		c0-5.6-0.8-10.2-2.4-13.7C472.2,38.6,470.1,36.9,467.4,36.9"/>
	<path id="n-left_1_" class="st0" d="M509.5,76.2c-1.1,0-2.9,0.1-5.5,0.2c-2,0.2-4.1,0.3-6.2,0.3c-0.5,0-0.9-0.2-1.4-0.5
		c-0.4-0.3-0.7-0.7-0.7-1.1c0-0.9,0.8-1.6,2.3-2.1c1.3-0.4,2.2-0.8,2.8-1.3c0.6-0.5,0.9-1.3,0.9-2.5V45.7c0-3.2-1-4.9-3-5.3
		c-0.3-0.1-0.5-0.3-0.8-0.6c-0.2-0.3-0.4-0.8-0.4-1.3c0-1,0.3-1.6,1-1.8c2.6-0.6,5.3-1.4,8.3-2.3c3-0.9,5.4-1.8,7.3-2.8
		c0.1-0.1,0.4-0.2,0.9-0.5c0.5-0.3,0.8-0.4,1.1-0.4c0.7,0,1,0.4,1,1.3l-0.2,2.1c-0.2,2.2-0.3,3.4-0.3,3.5c0,0.9,0.1,1.4,0.2,1.5"/>
	<path id="n-left-inner_1_" class="st0" d="M516.6,45.5v23.8c0,1.2,0.3,2,0.8,2.4c0.5,0.4,1.4,0.8,2.7,1.3c1.3,0.5,1.9,1.2,1.9,2.1
		c0,0.4-0.2,0.8-0.5,1.1c-0.3,0.3-0.7,0.5-1.1,0.5c-2,0-4-0.1-5.8-0.3c-2.3-0.1-4-0.2-5.1-0.2"/>
	<path id="n-right-inner_1_" class="st0" d="M537.3,76.2c-1.1,0-2.9,0.1-5.2,0.2c-1.9,0.2-3.9,0.3-6,0.3c-0.4,0-0.8-0.2-1.1-0.5
		c-0.3-0.3-0.5-0.7-0.5-1.1c0-0.9,0.6-1.7,1.9-2.1c1.3-0.4,2.2-0.8,2.7-1.3c0.5-0.4,0.8-1.3,0.8-2.5v-20c0-2.5-0.5-4.5-1.6-5.9
		c-1.1-1.4-2.5-2.1-4.3-2.1c-1.2,0-2.3,0.2-3.3,0.6c-1,0.4-2.1,1-3.3,1.8c-0.5,0.3-0.8,0.9-0.8,1.8"/>
	<path id="n-right_1_" class="st0" d="M517.1,39.2c2.6-2.4,5-4.1,7.2-5.3c2.2-1.1,4.8-1.7,7.7-1.7c3.7,0,6.8,1.3,9.1,4
		c2.4,2.6,3.5,6.2,3.5,10.6v22.5c0,1.2,0.3,2,0.9,2.5c0.6,0.4,1.5,0.9,2.9,1.3c1.4,0.5,2,1.2,2,2.1c0,0.4-0.2,0.8-0.6,1.1
		c-0.4,0.3-0.8,0.5-1.2,0.5c-2.1,0-4.1-0.1-6.1-0.3c-2.4-0.1-4.2-0.2-5.3-0.2"/>
	<path id="d-left_1_" class="st0" d="M587.3,70.6c-1.5,2.2-3.4,4-5.9,5.3s-5,1.9-7.6,1.9c-3.6,0-7-0.9-10-2.8
		c-3-1.9-5.4-4.4-7.1-7.6c-1.7-3.2-2.6-6.9-2.6-10.8c0-4.7,1-8.8,3.1-12.5c2.1-3.6,5-6.5,8.7-8.5c3.7-2,8-3,12.8-3c2,0,4,0.3,6,0.8
		l1.3,0.3"/>
	<path id="d-right-bottom_1_" class="st0" d="M600.9,69c0.3,0.9,0.9,1.4,1.8,1.4l4-0.3h0.4c0.3,0,0.6,0.1,0.7,0.2
		c0.1,0.1,0.2,0.4,0.2,0.9c0,0.5-0.2,1.1-0.7,1.8c-0.4,0.6-0.8,1-1.2,1c-5.8,0.7-11.2,1.9-16.1,3.7c-0.8,0.4-1.4,0.6-1.8,0.6
		c-0.2,0-0.5-0.2-0.9-0.7c-0.4-0.5-0.6-0.8-0.6-1.1c0.3-1.5,0.5-3.2,0.6-5.3v-0.6"/>
	<path id="d-right_1_" class="st0" d="M586,33.6c0.3,0,0.4-0.4,0.4-1.1V21.1c0-2.4-0.3-4.2-0.8-5.3c-0.5-1.1-1.5-1.8-2.9-2
		c-0.8-0.2-1.2-0.7-1.2-1.6c0-0.9,0.4-1.4,1.1-1.5c2.4-0.5,5.1-1.2,8-2.1c2.9-0.9,5.3-1.8,7.1-2.6c1.5-0.7,2.4-1,2.6-1
		c0.3,0,0.6,0.1,0.9,0.4c0.2,0.2,0.4,0.5,0.4,0.9c-0.1,0.3-0.2,1-0.3,2.1c-0.1,1.1-0.2,2.3-0.3,3.5L600.4,64c0,2.4,0.2,4,0.5,5"/>
	<path id="d-inner_1_" class="st0" d="M586.4,67.9l-0.1-23.4c0-0.9-0.4-2-1.3-3.1c-0.9-1.1-2-2-3.3-2.8c-1.3-0.7-2.5-1.1-3.6-1.1
		c-2.4,0-4.4,1.5-6,4.6c-1.6,3-2.4,6.9-2.4,11.7c0,4.9,0.9,9,2.7,12.1c1.8,3.1,4.2,4.7,7,4.7c1,0,2.2-0.2,3.6-0.7
		C584.5,69.3,585.6,68.7,586.4,67.9"/>
</g>
</svg>
