<svg width="172" height="108" viewBox="0 0 172 108">
  <path fill="#1A1919" fill-rule="evenodd" d="M58.1597417,1001.03668 C46.1269355,995.068272 35.865456,989.623405 26.973919,989.623405 C16.8258742,989.623405 10.8574627,993.707055 10.8574627,1000.82727 C10.8574627,1007.4152 17.558837,1012.54594 28.7539715,1012.54594 C38.0643445,1012.54594 48.6399508,1007.62462 58.1597417,1001.03668 M171.289062,1007.10108 C171.289062,1017.78139 162.702927,1029.08124 138.532605,1029.08124 C115.086521,1029.08124 91.544453,1016.83901 66.004189,1004.80621 L65.3846609,1004.49208 C53.0377278,1012.0224 39.0067252,1016.52489 26.3456651,1016.52489 C8.86799218,1016.52489 0.5,1009.29997 0.5,1001.66494 C0.5,993.707055 9.91508192,984.815518 29.4869343,984.815518 C41.3103227,984.815518 54.4949276,988.480332 67.6795326,993.602346 C80.2446095,982.302503 89.1361466,965.76721 89.1361466,948.603664 C89.1361466,933.848425 80.1399005,926.937632 69.6690031,926.937632 C57.007943,926.937632 44.137465,935.837895 44.137465,950.383717 C44.137465,964.196576 51.4583674,968.90848 57.6361969,968.90848 C62.8716456,968.90848 67.1647135,965.557792 67.1647135,960.217635 C67.1647135,957.922763 65.175243,956.561546 64.0234443,954.877477 C63.0810635,953.734404 62.1386828,952.477896 62.1386828,950.697844 C62.1386828,947.137739 64.4422802,943.891761 68.3165122,943.891761 C73.3338172,943.891761 75.9515416,948.394246 75.9515416,953.943822 C75.9515416,963.149486 69.2501672,974.344621 55.7514353,974.344621 C41.8338675,974.344621 32.7241868,965.557792 32.7241868,954.572076 C32.7241868,934.162552 51.3623842,922.967417 70.5154007,922.967417 C89.7644004,922.967417 101.797207,933.220171 101.797207,950.488426 C101.797207,968.070808 91.1256171,984.710809 76.0562506,996.953033 C105.252603,1009.19526 127.023344,1023.01684 146.071651,1023.01684 C156.638532,1023.01684 161.237001,1018.72377 161.237001,1012.86007 C161.237001,1011.08002 159.980493,1009.82351 158.942129,1008.67171 C157.999749,1007.62462 156.84795,1006.48155 156.84795,1004.69277 C156.84795,1001.56023 159.88451,999.151922 163.435889,999.151922 C168.776047,999.151922 171.289062,1002.81674 171.289062,1007.10108" transform="translate(0 -922)"/>
</svg>
