<svg width="94" height="228" viewBox="0 0 94 228">
  <path fill-rule="evenodd" d="M751.924,766.827125 C746.931975,766.827125 742.708017,765.963134 739.252,764.235125 C735.795983,762.507116 734.068,760.299138 734.068,757.611125 C734.068,755.691115 734.691994,753.24314 735.94,750.267125 C737.188006,747.29111 739.251986,744.747136 742.132,742.635125 C742.900004,742.251123 743.475998,742.059125 743.86,742.059125 C744.820005,742.059125 746.355989,742.827117 748.468,744.363125 C750.772012,746.475136 753.795981,748.155119 757.54,749.403125 C761.284019,750.651131 764.883983,751.275125 768.34,751.275125 C773.140024,751.275125 776.835987,749.211146 779.428,745.083125 C782.020013,740.955104 783.316,735.147162 783.316,727.659125 C783.316,722.091097 781.012023,716.283155 776.404,710.235125 C771.795977,704.187095 764.884046,696.267174 755.668,686.475125 L750.484,681.291125 C741.459955,672.075079 734.692023,663.243167 730.18,654.795125 C725.667977,646.347083 723.412,637.899167 723.412,629.451125 C723.412,617.547065 724.995984,607.611165 728.164,599.643125 C731.332016,591.675085 736.083968,583.947162 742.42,576.459125 C744.916012,567.051078 749.811964,558.603162 757.108,551.115125 C764.404036,543.627088 772.851952,539.883125 782.452,539.883125 C786.100018,539.883125 789.987979,540.459119 794.116,541.611125 C798.244021,542.763131 801.075992,544.011118 802.612,545.355125 C804.916012,547.275135 806.068,549.003117 806.068,550.539125 C806.068,551.115128 805.540005,552.555113 804.484,554.859125 C803.427995,557.163137 802.036009,559.275115 800.308,561.195125 C798.579991,563.115135 796.852009,564.075125 795.124,564.075125 C793.779993,564.075125 792.532006,563.499131 791.38,562.347125 C784.083964,555.819092 778.132023,552.555125 773.524,552.555125 C768.147973,552.555125 763.876016,554.331107 760.708,557.883125 C757.539984,561.435143 755.956,565.7071 755.956,570.699125 C755.956,575.883151 758.739972,582.267087 764.308,589.851125 C769.876028,597.435163 777.075956,605.259085 785.908,613.323125 C797.428058,623.691177 805.347978,633.771076 809.668,643.563125 C813.988022,653.355174 816.148,664.971058 816.148,678.411125 C816.148,689.35518 813.988022,700.395069 809.668,711.531125 C805.347978,722.667181 799.444037,732.795079 791.956,741.915125 C784.467963,751.035171 776.308044,758.283098 767.476,763.659125 C764.019983,765.771136 758.836035,766.827125 751.924,766.827125 Z M798.868,709.515125 C799.060001,710.283129 799.539996,710.619125 800.308,710.523125 C801.076004,710.427125 801.555999,710.091128 801.748,709.515125 C803.860011,701.451085 804.916,694.443155 804.916,688.491125 C804.916,678.891077 802.852021,670.155164 798.724,662.283125 C794.595979,654.411086 788.020045,645.771172 778.996,636.363125 C768.819949,625.995073 760.852029,617.499158 755.092,610.875125 C749.331971,604.251092 745.49201,598.059154 743.572,592.299125 C743.379999,591.531121 742.900004,591.195125 742.132,591.291125 C741.363996,591.387125 740.884001,591.723122 740.692,592.299125 C738.579989,600.363165 737.524,607.371095 737.524,613.323125 C737.524,622.923173 739.587979,631.659086 743.716,639.531125 C747.844021,647.403164 754.419955,656.043078 763.444,665.451125 C773.620051,675.819177 781.587971,684.315092 787.348,690.939125 C793.108029,697.563158 796.94799,703.755096 798.868,709.515125 Z" transform="translate(-723 -539)"/>
</svg>
