<svg xmlns="http://www.w3.org/2000/svg" viewBox="0 0 768 768" class="tt__icon"><path d="M36 679.6c0-5.7 1.7-9.9 5.2-12.7s8.6-5.5 15.5-8c18.8-5 35-12.9 48.5-23.5 13.5-10.7 23.4-22.9 29.7-36.7C194.5 459.9 248.2 323.7 296 190c7.5-20.7 13.5-39.4 17.9-56 4.4-16.6 7.2-25 8.5-25 27-6.3 50.5-12.9 70.6-19.8 10.7-3.8 20.7-8.8 30.1-15.1 9.4-6.3 16.6-12.2 21.7-17.9 5-2.5 8.2-3.8 9.4-3.8 3.1 0 5.7 2.2 7.5 6.6 4.4 9.4 7.8 18.2 10.4 26.4 38.9 126.8 81.9 261.8 129 405l34.8 108.3c8.8 28.9 33.9 49 75.3 60.3 6.9 2.5 12.1 5 15.5 7.5 3.4 2.5 5.2 6.6 5.2 12.2 0 4.4-1.7 7.9-5.2 10.4s-7.7 3.8-12.7 3.8c-12.6 0-37.7-.6-75.3-1.9-38.9-1.3-65.9-1.9-81-1.9-12.6 0-36.4.6-71.6 1.9-28.9 1.9-55.3 2.8-79.1 2.8-5.7 0-10.4-1.3-14.1-3.8-3.8-2.5-5.7-6-5.7-10.4 0-10.7 6.9-17.6 20.7-20.7 22-4.4 38.1-9.9 48.5-16.5 10.4-6.6 15.5-15.8 15.5-27.8 0-6.3-.6-11.3-1.9-15.1l-29-109.2c-1.3-5.7-3-9.7-5.2-12.2s-5.5-3.8-9.9-3.8H262c-5 0-8.5 1.3-10.4 3.8-1.9 2.5-3.8 6.6-5.7 12.2l-13.2 40.5c-1.9 6.9-4.7 16-8.5 27.3s-6.9 21.4-9.4 30.1c-2.5 8.2-3.8 16.3-3.8 24.5 0 11.9 4.5 21.2 13.7 27.8 9.1 6.6 25.3 12.7 48.5 18.4 13.8 3.1 20.7 10.1 20.7 20.7 0 8.8-6.6 13.2-19.8 13.2-14.5 0-33-.6-55.6-1.9l-50.9-.9c-17.6 0-34.8.9-51.8 2.8-5.7.6-14.1 1.3-25.4 1.9-11.3.6-21.4.9-30.1.9-16.1 0-24.3-5.3-24.3-16zm370.1-259.9c9.4 0 14.1-2.2 14.1-6.6 0-.6-.6-4.1-1.9-10.4L358 194.6c-1.9-6.3-3.8-9.4-5.7-9.4-1.3 0-3.1 3.1-5.7 9.4l-72.5 208.1c-1.3 2.5-1.9 5-1.9 7.5 0 3.1 1.6 5.5 4.7 7.1 3.1 1.6 6.9 2.4 11.3 2.4h117.9z"/></svg>
