<svg width="172" height="108" viewBox="0 0 172 108"><path fill="#1A1919" fill-rule="evenodd" d="M58.16 79.037c-12.033-5.969-22.295-11.414-31.186-11.414-10.148 0-16.117 4.084-16.117 11.204 0 6.588 6.702 11.719 17.897 11.719 9.31 0 19.886-4.921 29.406-11.51m113.13 6.065c0 10.68-8.587 21.98-32.757 21.98-23.446 0-46.989-12.242-72.529-24.275l-.62-.314c-12.346 7.53-26.377 12.033-39.038 12.033C8.868 94.525.5 87.3.5 79.665c0-7.958 9.415-16.85 28.987-16.85 11.823 0 25.008 3.665 38.193 8.787 12.565-11.3 21.456-27.835 21.456-44.998 0-14.756-8.996-21.666-19.467-21.666-12.661 0-25.532 8.9-25.532 23.446 0 13.813 7.321 18.524 13.5 18.524 5.235 0 9.528-3.35 9.528-8.69 0-2.295-1.99-3.656-3.142-5.34-.942-1.144-1.884-2.4-1.884-4.18 0-3.56 2.303-6.806 6.178-6.806 5.017 0 7.635 4.502 7.635 10.052 0 9.205-6.702 20.4-20.2 20.4-13.918 0-23.028-8.786-23.028-19.772 0-20.41 18.638-31.605 37.791-31.605 19.25 0 31.282 10.253 31.282 27.521 0 17.583-10.671 34.223-25.74 46.465 29.196 12.242 50.966 26.064 70.015 26.064 10.567 0 15.165-4.293 15.165-10.157 0-1.78-1.257-3.036-2.295-4.188-.942-1.047-2.094-2.19-2.094-3.98 0-3.132 3.037-5.54 6.588-5.54 5.34 0 7.853 3.665 7.853 7.95"/></svg>