<svg xmlns="http://www.w3.org/2000/svg" viewBox="0 0 768 768" class="tt__icon"><path d="M199.2 536.2c0-3 .9-5.2 2.8-6.8s4.6-2.9 8.2-4.2c10-2.7 18.6-6.8 25.8-12.5 7.2-5.7 12.4-12.2 15.8-19.5 31.7-73.7 60.2-146 85.5-217 4-11 7.2-20.9 9.5-29.8 2.3-8.8 3.8-13.2 4.5-13.2 14.3-3.3 26.8-6.8 37.5-10.5 5.7-2 11-4.7 16-8s8.8-6.5 11.5-9.5c2.7-1.3 4.3-2 5-2 1.7 0 3 1.2 4 3.5 2.3 5 4.2 9.7 5.5 14 20.7 67.3 43.5 139 68.5 215l18.5 57.5c4.7 15.3 18 26 40 32 3.7 1.3 6.4 2.7 8.2 4 1.8 1.3 2.8 3.5 2.8 6.5 0 2.3-.9 4.2-2.8 5.5-1.8 1.3-4.1 2-6.8 2-6.7 0-20-.3-40-1-20.7-.7-35-1-43-1-6.7 0-19.3.3-38 1-15.3 1-29.3 1.5-42 1.5-3 0-5.5-.7-7.5-2s-3-3.2-3-5.5c0-5.7 3.7-9.3 11-11 11.7-2.3 20.2-5.2 25.8-8.8s8.2-8.4 8.2-14.8c0-3.3-.3-6-1-8l-15.5-58c-.7-3-1.6-5.2-2.8-6.5-1.2-1.3-2.9-2-5.2-2h-87c-2.7 0-4.5.7-5.5 2s-2 3.5-3 6.5l-7 21.5c-1 3.7-2.5 8.5-4.5 14.5s-3.7 11.3-5 16c-1.3 4.3-2 8.7-2 13 0 6.3 2.4 11.2 7.2 14.8 4.8 3.5 13.4 6.8 25.8 9.8 7.3 1.7 11 5.3 11 11 0 4.7-3.5 7-10.5 7-7.7 0-17.5-.3-29.5-1l-27-.5c-9.3 0-18.5.5-27.5 1.5-3 .3-7.5.7-13.5 1-6 .3-11.3.5-16 .5-8.6.1-13-2.8-13-8.5zm196.6-138c5 0 7.5-1.2 7.5-3.5 0-.3-.3-2.2-1-5.5l-32-110.5c-1-3.3-2-5-3-5-.7 0-1.7 1.7-3 5l-38.5 110.5c-.7 1.3-1 2.7-1 4 0 1.7.8 2.9 2.5 3.8 1.7.8 3.7 1.2 6 1.2h62.5z"/></svg>