<svg width="100" height="22" viewBox="0 0 100 22"><path fill="#E52D2B" fill-rule="evenodd" d="M24.444 18.486l-2.259-16.51H11.94c-4.249 0-6.938 3.118-6.965 7.34h.322c.242-2.689 2.125-3.684 5.244-3.684h5.97c-4.168 9.627-7.34 12.451-11.778 12.343-2.447 0-3.819-.887-3.819-2.662 0-.592.135-1.237.484-2.07l-.349-.028C.35 14.4 0 15.69 0 16.846c0 2.985 1.613 5.001 4.437 5.001 3.092 0 5.97-2.178 9.035-7.475h5.513l.457 3.764c.162 1.4-.242 1.937-2.15 2.313v.43h8.9v-.43c-1.076-.269-1.533-.645-1.748-1.963zm-10.272-5.35c1.13-2.072 2.285-4.573 3.495-7.504h.242l.915 7.503h-4.652zm18.312 8.066c3.173 0 5.728-1.748 5.728-5.002 0-1.694-.914-2.85-2.904-4.007l-2.636-1.505c-1.317-.753-1.828-1.184-1.828-2.125 0-.995.833-1.64 1.963-1.64 1.667 0 3.442 1.425 4.464 3.872l.242-.054-.323-3.953c-1.264-.59-2.474-.887-4.06-.887-2.905 0-5.62 1.398-5.62 4.571 0 1.83.994 3.04 2.984 4.17l2.501 1.424c1.506.86 1.856 1.371 1.856 2.232 0 1.21-.807 1.855-2.125 1.855-1.909 0-3.926-1.398-5.163-4.275l-.242.053.323 4.061c1.452.887 3.012 1.21 4.84 1.21zm22.454-2.689v-8.256c0-2.796-1.748-4.356-4.168-4.356-1.72 0-3.63.753-5.136 2.42h-.16V.496h-.27c-1.049.806-3.066 1.29-5.782 1.344v.296c1.264.377 1.614.968 1.614 2.098v14.28c0 1.505-.484 1.72-1.668 2.07v.295h7.691v-.295c-1.075-.35-1.586-.538-1.586-2.07V9.181c.887-.538 1.828-.834 2.608-.834 1.614 0 2.42.86 2.42 2.555v7.61c0 1.506-.457 1.721-1.613 2.071v.295h7.691v-.295c-1.13-.35-1.64-.538-1.64-2.07zm2.447 2.366h7.772v-.295c-1.129-.35-1.667-.538-1.667-2.07V.495h-.269c-1.049.806-3.066 1.29-5.782 1.344v.296c1.264.377 1.614.968 1.614 2.098v14.28c0 1.505-.484 1.72-1.668 2.07v.295zM73.816 5.901c-4.706 0-7.449 3.415-7.449 7.825 0 4.652 3.173 7.503 7.02 7.503 3.011 0 5.538-1.775 6.318-4.76l-.323-.107c-.914 1.452-2.58 2.097-4.114 2.097-2.716 0-4.276-1.613-4.302-5.297l9.062-.027c.027-3.846-1.909-7.234-6.212-7.234zm-.108 1.05c1.506 0 2.421 1.666 2.448 5.108h-5.164c.162-3.926 1.291-5.109 2.716-5.109zm25.79-1.507c-.512 1.344-1.023 1.99-2.098 1.99-.673 0-1.452-.323-2.42-.726-.942-.377-1.964-.86-3.147-.86-1.963 0-3.388 1.344-4.222 2.957h-.242V5.686h-.349c-1.049.753-3.093 1.398-5.7 1.452v.376c1.21.457 1.585 1.022 1.585 2.394v8.524c0 1.506-.484 1.748-1.667 2.071v.376h8.444v-.376c-1.829-.323-2.313-.51-2.313-2.07V9.826c.753-.592 1.345-.726 2.017-.726 1.21 0 2.205.403 3.227.834.995.43 2.017.86 3.308.86 2.205 0 3.415-1.99 3.872-5.27l-.296-.08z"/></svg>