<svg width="100" height="22" viewBox="0 0 100 22">
  <path fill="#E52D2B" fill-rule="evenodd" d="M24.4442,17.9903 L22.1852,1.4793 L11.9402,1.4793 C7.6912,1.4793 5.0022,4.5983 4.9752,8.8203 L5.2972,8.8203 C5.5392,6.1313 7.4222,5.1363 10.5412,5.1363 L16.5112,5.1363 C12.3432,14.7633 9.1702,17.5873 4.7332,17.4793 C2.2862,17.4793 0.9142,16.5923 0.9142,14.8173 C0.9142,14.2253 1.0492,13.5803 1.3982,12.7463 L1.0492,12.7193 C0.3492,13.9033 0.0002,15.1933 0.0002,16.3503 C0.0002,19.3353 1.6132,21.3513 4.4372,21.3513 C7.5292,21.3513 10.4072,19.1733 13.4722,13.8763 L18.9852,13.8763 L19.4422,17.6403 C19.6042,19.0393 19.2002,19.5773 17.2912,19.9533 L17.2912,20.3833 L26.1922,20.3833 L26.1922,19.9533 C25.1162,19.6843 24.6592,19.3083 24.4442,17.9903 Z M14.1722,12.6393 C15.3012,10.5683 16.4572,8.0673 17.6672,5.1363 L17.9092,5.1363 L18.8242,12.6393 L14.1722,12.6393 Z M32.4842,20.7063 C35.6572,20.7063 38.2122,18.9583 38.2122,15.7043 C38.2122,14.0103 37.2982,12.8543 35.3082,11.6973 L32.6722,10.1923 C31.3552,9.4393 30.8442,9.0083 30.8442,8.0673 C30.8442,7.0723 31.6772,6.4273 32.8072,6.4273 C34.4742,6.4273 36.2492,7.8523 37.2712,10.2993 L37.5132,10.2453 L37.1902,6.2923 C35.9262,5.7013 34.7162,5.4053 33.1302,5.4053 C30.2252,5.4053 27.5092,6.8033 27.5092,9.9763 C27.5092,11.8053 28.5042,13.0153 30.4942,14.1453 L32.9952,15.5703 C34.5012,16.4303 34.8512,16.9413 34.8512,17.8023 C34.8512,19.0123 34.0442,19.6573 32.7262,19.6573 C30.8172,19.6573 28.8002,18.2593 27.5632,15.3823 L27.3212,15.4353 L27.6442,19.4963 C29.0962,20.3833 30.6562,20.7063 32.4842,20.7063 Z M54.9382,18.0173 L54.9382,9.7613 C54.9382,6.9653 53.1902,5.4053 50.7702,5.4053 C49.0492,5.4053 47.1402,6.1583 45.6342,7.8253 L45.4732,7.8253 L45.4732,0.0003 L45.2042,0.0003 C44.1552,0.8063 42.1382,1.2903 39.4222,1.3443 L39.4222,1.6403 C40.6862,2.0173 41.0362,2.6083 41.0362,3.7383 L41.0362,18.0173 C41.0362,19.5233 40.5522,19.7383 39.3682,20.0883 L39.3682,20.3833 L47.0592,20.3833 L47.0592,20.0883 C45.9842,19.7383 45.4732,19.5503 45.4732,18.0173 L45.4732,8.6863 C46.3602,8.1483 47.3012,7.8523 48.0812,7.8523 C49.6952,7.8523 50.5012,8.7123 50.5012,10.4073 L50.5012,18.0173 C50.5012,19.5233 50.0442,19.7383 48.8882,20.0883 L48.8882,20.3833 L56.5792,20.3833 L56.5792,20.0883 C55.4492,19.7383 54.9382,19.5503 54.9382,18.0173 Z M57.3852,20.3833 L65.1572,20.3833 L65.1572,20.0883 C64.0282,19.7383 63.4902,19.5503 63.4902,18.0173 L63.4902,0.0003 L63.2212,0.0003 C62.1722,0.8063 60.1552,1.2903 57.4392,1.3443 L57.4392,1.6403 C58.7032,2.0173 59.0532,2.6083 59.0532,3.7383 L59.0532,18.0173 C59.0532,19.5233 58.5692,19.7383 57.3852,20.0883 L57.3852,20.3833 Z M73.8162,5.4053 C69.1102,5.4053 66.3672,8.8203 66.3672,13.2303 C66.3672,17.8823 69.5402,20.7333 73.3862,20.7333 C76.3982,20.7333 78.9252,18.9583 79.7052,15.9733 L79.3822,15.8663 C78.4682,17.3183 76.8012,17.9633 75.2682,17.9633 C72.5522,17.9633 70.9922,16.3503 70.9662,12.6663 L80.0282,12.6393 C80.0552,8.7933 78.1192,5.4053 73.8162,5.4053 Z M73.7082,6.4543 C75.2142,6.4543 76.1292,8.1213 76.1562,11.5633 L70.9922,11.5633 C71.1542,7.6373 72.2832,6.4543 73.7082,6.4543 Z M99.4972,4.9483 C98.9862,6.2923 98.4752,6.9383 97.4002,6.9383 C96.7272,6.9383 95.9482,6.6153 94.9792,6.2123 C94.0382,5.8353 93.0162,5.3513 91.8332,5.3513 C89.8702,5.3513 88.4452,6.6963 87.6112,8.3093 L87.3692,8.3093 L87.3692,5.1903 L87.0202,5.1903 C85.9712,5.9433 83.9272,6.5883 81.3192,6.6423 L81.3192,7.0183 C82.5292,7.4753 82.9052,8.0403 82.9052,9.4123 L82.9052,17.9363 C82.9052,19.4423 82.4212,19.6843 81.2382,20.0073 L81.2382,20.3833 L89.6822,20.3833 L89.6822,20.0073 C87.8532,19.6843 87.3692,19.4963 87.3692,17.9363 L87.3692,9.3313 C88.1222,8.7393 88.7142,8.6053 89.3862,8.6053 C90.5962,8.6053 91.5912,9.0083 92.6132,9.4393 C93.6082,9.8693 94.6302,10.2993 95.9212,10.2993 C98.1262,10.2993 99.3362,8.3093 99.7932,5.0283 L99.4972,4.9483 Z" transform="translate(0 .496)"/>
</svg>
