<svg id="florish" xmlns="http://www.w3.org/2000/svg" viewBox="0 0 130.9 141.9"><style>.st0{fill:none;stroke:#000;stroke-miterlimit:10}</style><path id="florish-stroke" class="st0" d="M78.5 47.3c5.3 1.8 11.2 2.9 17.8 2.9 15 0 28.9-19.1 28.9-24.4 0-6-2.5-10.7-8.1-10.7-6.6 0-9.8 5.5-6.6 10.3 6.3 9.4-.3 17.9-8.7 17.9-7.5 0-14.3-1.7-20.5-4.4 3.8-17.3-3.5-33.4-15-33.4-8.3 0-14.2 7.4-13.5 14.4C45 13.7 38.2 8.7 31.9 8.7 17.7 8.7 7.2 22.6 7.2 34.9c0 5.1 11.8 7.5 11.8-2-7.4-6.9-.6-17.4 5.5-17.4 15.2 0 27.8 20.9 50 30.3-1.5 4-3.7 7.8-6.8 11.2-1.5 1.6-.8 1.5-1.9 0-12.9-16.5-39.4-3.7-39.4 20 0 25.8 23.9 59.7 51.6 59.7 8.4 0 20.7-3.4 20.7-11.3 0-2.7-5.2-8.9-8.4-8.9-5.2 0-6.1 12.7-15.2 13.1-7.7.3-11.3-5.2-11.3-12.9 0-19 36.8-23.2 36.8-46.1 0-16.3-19.9-21.2-29-10.9-.5.8-1.5.4-.7-.4 3.3-3.9 5.8-7.9 7.6-12z"/><path id="florish-counter" class="st0" d="M59.1 24.9c-3.4-5.4-.1-12 7.5-12s11.9 11.3 10.2 23.8c-6.5-3.3-12.4-7.6-17.7-11.8z"/></svg>