<svg width="133" height="42" viewBox="0 0 133 42"><path d="M80.243 35.472V19.128h9.526v2.055h-7.472v5.37h6.725v1.961h-6.725v7.005h-2.054zm22.134-5.557c0 3.41-2.428 5.931-5.744 5.931-3.409 0-5.743-2.522-5.743-5.93 0-3.41 2.428-5.931 5.743-5.931 3.27-.094 5.744 2.521 5.744 5.93zm-2.148 0c0-2.521-1.774-4.109-3.69-4.109-1.96 0-3.688 1.448-3.688 4.11 0 2.521 1.774 4.109 3.689 4.109s3.689-1.541 3.689-4.11zm5.93-4.062c.701-1.074 2.149-1.962 3.596-1.962 2.802 0 4.296 1.962 4.296 4.67v6.911h-2.054v-6.49c0-2.335-1.168-3.13-2.709-3.13-1.868 0-2.942 1.775-2.942 3.503v6.21h-2.148V24.313h2.055l-.093 1.54zm11.208 6.21v-5.837h-1.961v-1.914h1.961v-3.41h2.148v3.41h2.709v1.961h-2.709v5.744c0 1.26.467 1.868 1.541 1.868.374 0 .7 0 .98-.187l.795 1.868c-.467.187-.981.28-1.635.28-2.568-.187-3.829-1.448-3.829-3.783zm5.744.608l1.868-.794c.607 1.447 1.634 2.148 3.035 2.148 1.26 0 2.241-.7 2.241-1.541 0-.607-.373-1.168-1.54-1.448l-2.242-.607c-1.074-.28-3.035-1.167-3.035-3.129 0-2.054 2.148-3.315 4.483-3.315 1.96 0 3.595.887 4.296 2.615l-1.868.794c-.374-1.074-1.448-1.448-2.522-1.448-1.167 0-2.241.467-2.241 1.448 0 .7.607 1.074 1.447 1.26l2.242.468c2.241.467 3.129 1.96 3.129 3.315 0 1.961-1.775 3.502-4.39 3.502-2.708-.046-4.25-1.634-4.903-3.268zM.156 26.506c0-5.136 4.39-9.339 9.527-9.339 2.802 0 4.856 1.167 6.444 2.615l-1.868 1.868c-1.074-1.074-2.615-1.868-4.67-1.868-3.782.047-6.724 3.035-6.724 6.865 0 3.829 2.942 6.817 6.724 6.817 2.429 0 3.876-.98 4.763-1.868.794-.793 1.168-1.774 1.355-3.222H9.683v-2.521h8.639c.093.467.093.98.093 1.54 0 1.962-.467 4.297-2.241 6.025-1.635 1.774-3.783 2.615-6.538 2.615-5.09-.14-9.48-4.343-9.48-9.527zm25.31-2.708c-3.315 0-6.024 2.522-6.024 6.024 0 3.502 2.709 6.024 6.024 6.024 3.316 0 6.024-2.522 6.024-6.024 0-3.502-2.708-6.024-6.024-6.024zm0 9.76c-1.867 0-3.409-1.541-3.409-3.69 0-2.147 1.542-3.688 3.41-3.688 1.867 0 3.408 1.447 3.408 3.689 0 2.101-1.54 3.689-3.409 3.689zm13.216-9.76c-3.316 0-6.024 2.522-6.024 6.024 0 3.502 2.708 6.024 6.024 6.024 3.315 0 6.024-2.522 6.024-6.024 0-3.502-2.709-6.024-6.024-6.024zm0 9.76c-1.868 0-3.41-1.541-3.41-3.69 0-2.147 1.542-3.688 3.41-3.688s3.409 1.447 3.409 3.689c0 2.101-1.541 3.689-3.41 3.689zm16.297-9.386v.98h-.093c-.607-.7-1.775-1.354-3.222-1.354-3.036 0-5.838 2.615-5.838 6.024s2.709 6.024 5.838 6.024c1.447 0 2.615-.7 3.222-1.354h.093v.887c0 2.335-1.26 3.502-3.222 3.502-1.634 0-2.615-1.167-3.035-2.148l-2.335.98c.7 1.542 2.428 3.597 5.37 3.597 3.129 0 5.744-1.868 5.744-6.305V24.172h-2.522zm-3.035 9.386c-1.868 0-3.41-1.541-3.41-3.596 0-2.148 1.542-3.689 3.41-3.689s3.222 1.541 3.222 3.69c0 2.007-1.494 3.595-3.222 3.595zm7.378-15.784h2.615v17.792h-2.615zm9.947 15.784c-1.355 0-2.335-.607-2.942-1.868l8.078-3.316-.28-.7c-.467-1.354-2.055-3.876-5.137-3.876-3.082 0-5.743 2.428-5.743 6.024 0 3.409 2.521 6.024 6.024 6.024 2.708 0 4.39-1.634 5.043-2.708l-2.055-1.355c-.654 1.074-1.634 1.775-2.988 1.775zm-.187-7.425c1.074 0 1.961.467 2.241 1.26l-5.463 2.242c0-2.335 1.868-3.502 3.222-3.502zM.95.636h1.354L4.92 5.399h.093L7.721.636h1.261v8.359H7.721V4.419l.094-1.355h-.094L5.387 7.267h-.748L2.211 3.064h-.093l.093 1.355v4.576H.95zm13.029 7.705c-.187.187-.467.374-.794.607-.28.187-.607.28-1.074.28-.28 0-.607 0-.887-.093a2.032 2.032 0 0 1-.7-.374c-.188-.186-.374-.373-.468-.607a1.806 1.806 0 0 1-.187-.793c0-.28.094-.608.187-.794.094-.187.28-.467.467-.607.187-.187.467-.28.794-.374.327-.093.607-.093.98-.093.374 0 .701 0 .981.093s.467.093.607.187v-.374c0-.187 0-.28-.093-.467s-.093-.28-.187-.373c-.093-.094-.28-.187-.373-.28-.094-.094-.28-.094-.467-.094-.28 0-.607.093-.794.187-.187.093-.374.28-.607.607l-1.074-.747c.28-.374.607-.7.98-.887.374-.187.888-.28 1.355-.28.887 0 1.447.186 1.96.606.515.42.701.981.701 1.775v3.456h-1.26v-.56h-.047zm0-1.774c-.094-.094-.28-.094-.607-.187-.187-.094-.467-.094-.7-.094-.374 0-.701.094-.981.28-.187.187-.374.374-.374.701 0 .094 0 .28.093.374.094.093.094.186.187.28.094.093.187.093.28.187.094 0 .28.093.374.093.187 0 .374 0 .607-.093.187-.094.374-.187.467-.28.28-.28.374-.467.467-.701.187-.14.187-.374.187-.56zm6.818 1.68c-.187.281-.467.468-.794.701-.28.187-.7.28-1.168.28-.373 0-.7-.093-1.074-.186-.28-.187-.607-.374-.887-.7a2.666 2.666 0 0 1-.607-.981c-.093-.374-.187-.794-.187-1.261 0-.467.094-.888.187-1.261.093-.374.374-.7.607-.98.28-.281.607-.468.887-.701.28-.187.7-.187 1.074-.187.467 0 .794.093 1.168.28.373.187.607.374.7.7h.094l-.094-.793V.636h1.261v8.359h-1.26V8.2h.093v.047zm-1.775-.326c.187 0 .374 0 .7-.094a3.06 3.06 0 0 0 .608-.373c.093-.093.186-.28.28-.607.093-.187.093-.467.093-.794s0-.607-.093-.794a3.06 3.06 0 0 0-.374-.607c-.186-.187-.28-.28-.607-.374-.187-.046-.373-.046-.7-.046-.187 0-.467 0-.7.093-.187.094-.374.187-.468.374 0 .187-.093.373-.186.7-.094.28-.094.467-.094.794 0 .28 0 .607.094.794.093.187.186.374.373.607.187.187.28.28.467.374.234-.047.42-.047.607-.047zm9.573-.28c-.187.467-.607.794-1.074 1.074-.467.28-.98.467-1.634.467-.374 0-.794-.094-1.168-.187-.373-.187-.7-.374-.98-.7a2.666 2.666 0 0 1-.607-.981 4.423 4.423 0 0 1-.187-1.214c0-.374.093-.794.187-1.168.093-.373.28-.7.607-.98.28-.28.607-.467.887-.7a2.66 2.66 0 0 1 1.167-.281c.467 0 .888.093 1.168.187.373.28.7.467.98.794.187.28.374.607.607.98.094.374.187.794.187 1.261v.28h-4.39c0 .28.094.467.187.7.094.188.187.374.374.468.187.093.28.186.467.28.187.093.374.093.607.093.374 0 .7-.093.887-.28.28-.187.467-.373.607-.7l1.121.607zm-1.26-2.242c0-.093-.094-.28-.094-.373-.093-.094-.187-.28-.28-.374-.094-.093-.187-.187-.374-.28-.233-.14-.42-.14-.747-.14-.374 0-.7.093-.98.28-.28.187-.468.467-.608.887h3.082zM32.19.636h1.26v2.615l-.093.794h.094c.186-.28.373-.467.7-.7.28-.187.7-.28 1.168-.28.373 0 .7.093 1.074.186.373.187.7.374.887.7.28.28.467.608.607.981.187.374.187.794.187 1.261 0 .467 0 .794-.187 1.168-.187.373-.374.7-.607.98-.28.28-.607.467-.887.7-.28.187-.7.187-1.074.187-.467 0-.794-.093-1.168-.28-.28-.187-.607-.373-.7-.7h-.094v.794H32.19V.636zm2.895 7.285c.187 0 .374 0 .7-.094.187-.093.374-.186.608-.373.186-.187.28-.374.373-.607.094-.187.094-.467.094-.794s0-.607-.094-.794a3.06 3.06 0 0 0-.373-.607c-.28-.093-.374-.187-.607-.28-.234-.094-.374-.094-.7-.094-.188 0-.468 0-.701.094-.234.093-.374.187-.467.373-.187.187-.28.374-.374.608-.093.186-.093.467-.093.793 0 .28 0 .607.093.794.093.187.187.374.374.607.186.187.28.28.467.374h.7zm5.558.794l-2.335-5.37h1.448l1.541 3.782h.093l1.541-3.782h1.495L40.83 11.61h-1.354zm9.34-8.172c.186 0 .373 0 .607.093.186 0 .28.093.467.187l-.374 1.074c-.093 0-.187-.093-.28-.093h-.374c-.187 0-.373.093-.607.186-.187.094-.187.374-.187.7v.608h1.448v1.167h-1.448v4.577h-1.26V4.465H46.9V3.298h1.074v-.7c0-.28.093-.608.186-.888.094-.28.187-.467.374-.7.187-.234.374-.28.7-.374.28-.093.467-.093.748-.093zm1.774 2.708h1.26v.887h.094a1.31 1.31 0 0 1 .28-.373c.094-.094.187-.28.374-.374.187-.093.28-.187.467-.187.187-.093.28-.093.467-.093s.374 0 .467.093c.093 0 .28.094.374.094l-.374 1.167c-.093 0-.187-.093-.28-.093h-.374c-.187 0-.373 0-.607.093-.187.094-.28.187-.467.374-.093.187-.187.28-.28.467-.093.187-.093.373-.093.7v3.036h-1.261v-5.79h-.047zm5.23-.98c-.28 0-.467-.094-.607-.28-.14-.187-.28-.374-.28-.608 0-.233.093-.467.28-.607.187-.187.374-.28.607-.28.234 0 .467.093.607.28.187.187.28.374.28.607a.753.753 0 0 1-.28.607c-.187.094-.28.28-.607.28zm-.56 6.724V3.25h1.26v5.744h-1.26zm7.892-1.354c-.187.467-.607.794-1.074 1.074a3.06 3.06 0 0 1-1.635.467c-.373 0-.794-.094-1.167-.187-.374-.187-.7-.374-.98-.7a2.666 2.666 0 0 1-.608-.981c-.093-.374-.187-.794-.187-1.261 0-.374.094-.794.187-1.167.093-.374.28-.7.607-.981.28-.187.607-.467.98-.607a2.68 2.68 0 0 1 1.168-.28c.467 0 .887.093 1.168.186.373.187.7.374.887.608.187.28.373.607.607.98.093.374.187.794.187 1.261v.28h-4.39c0 .28.094.467.187.7.093.28.187.374.374.608.186.093.28.186.467.28.186.093.373.093.607.093.373 0 .7-.093.887-.28.187-.187.467-.373.607-.7l1.12.607zM63.15 5.399c0-.093-.093-.28-.093-.373-.094-.094-.187-.28-.28-.374-.094-.093-.28-.187-.467-.28-.187-.094-.374-.094-.7-.094-.374 0-.701.094-.981.28-.28.187-.467.468-.607.888h3.128v-.047zm3.503-1.354c.186-.28.467-.467.793-.7.28-.187.7-.28 1.074-.28.7 0 1.261.186 1.635.7.373.373.607.98.607 1.774v3.503h-1.26v-3.41c0-.466-.094-.887-.374-1.073-.187-.187-.467-.28-.888-.28-.187 0-.373 0-.607.093-.187.093-.28.187-.467.373a7.601 7.601 0 0 0-.28.608c-.093.186-.093.373-.093.7v3.035h-1.261V3.251h1.26v.794h-.14zm9.62 4.203c-.188.28-.468.467-.795.7-.28.187-.7.28-1.167.28-.374 0-.7-.093-1.074-.186-.28-.187-.607-.374-.887-.7-.28-.328-.467-.608-.607-.981-.187-.374-.187-.794-.187-1.261 0-.467.093-.888.187-1.261.186-.374.373-.7.607-.98.28-.281.607-.468.887-.701.28-.187.7-.187 1.074-.187.467 0 .794.093 1.167.28.374.187.607.374.7.7h.094l-.093-.793V.636h1.26v8.359h-1.26V8.2h.093v.047zm-1.775-.327c.187 0 .373 0 .7-.094a3.06 3.06 0 0 0 .607-.373c.094-.093.187-.28.28-.607.094-.187.094-.467.094-.794s0-.607-.094-.794a3.033 3.033 0 0 0-.373-.607c-.187-.187-.28-.28-.607-.374-.187-.093-.374-.093-.7-.093-.187 0-.468 0-.701.093-.187.094-.374.187-.467.374 0 .187-.187.374-.187.7-.093.187-.093.468-.093.794 0 .28 0 .607.093.794 0 .187.187.374.28.467.187.187.28.28.467.374.327.14.514.14.7.14zm6.35 1.26c-.373 0-.7 0-.98-.093s-.467-.186-.794-.373c-.187-.187-.374-.28-.467-.467-.093-.187-.28-.374-.28-.607l1.167-.467c.187.187.374.467.607.7.28.187.467.187.794.187s.607-.093.794-.187a.514.514 0 0 0 .28-.467c0-.187-.093-.28-.186-.373-.094-.094-.374-.187-.794-.28l-.794-.187c-.187 0-.374-.094-.607-.187-.187-.094-.374-.187-.467-.28-.094-.094-.28-.28-.374-.467-.093-.187-.093-.374-.093-.7 0-.328.093-.468.187-.795.093-.186.28-.373.467-.607.186-.186.467-.28.793-.28.28-.093.607-.093.888-.093.28 0 .467 0 .794.093.093.094.28.094.466.28.187.094.374.28.608.374.186.187.28.373.373.607l-1.167.467c-.094-.28-.28-.374-.467-.607-.187-.094-.467-.187-.7-.187h-.28c-.094 0-.188.093-.281.093-.187.187-.28.187-.374.28-.093.094 0 .187 0 .28 0 .188.094.281.187.374.094.094.374.187.607.187l.887.187c.608.187 1.074.374 1.261.7.187.28.374.7.374 1.075 0 .28-.094.466-.187.7-.093.187-.28.374-.467.607-.187.187-.467.28-.794.374-.28.046-.607.14-.98.14zm8.546-6.117c.374 0 .887.094 1.168.187.373.187.7.374.98.7.28.28.467.608.607.981.094.374.187.794.187 1.168 0 .373-.093.887-.187 1.167-.186.374-.373.7-.607.98-.28.281-.607.468-.98.701-.374.187-.794.187-1.168.187-.373 0-.794 0-1.167-.187-.374-.187-.7-.373-.98-.7a2.666 2.666 0 0 1-.608-.98c-.187-.374-.187-.795-.187-1.168 0-.374.094-.888.187-1.168.187-.373.374-.7.607-.98.28-.28.607-.467.98-.7.421-.094.795-.188 1.168-.188zm0 4.857c.187 0 .374 0 .607-.094.187-.093.374-.186.607-.373.187-.187.28-.374.374-.607.093-.187.093-.467.093-.794s0-.607-.093-.794a3.043 3.043 0 0 0-.374-.607c-.186-.187-.28-.28-.607-.374-.187-.093-.373-.093-.607-.093-.233 0-.373 0-.607.093-.187.094-.373.187-.607.374-.187.187-.28.374-.374.607-.093.187-.093.467-.093.794s0 .607.093.794c.094.187.187.373.374.607.187.187.28.28.607.373.234.094.42.094.607.094zM95.933.543c.187 0 .373 0 .607.093.187.093.28.093.467.187l-.374 1.167c-.093 0-.186-.093-.28-.093h-.373c-.187 0-.374.093-.608.187-.186.093-.186.373-.186.7v.607h1.447v1.074h-1.447v4.577h-1.261V4.465H92.85V3.298h1.074v-.7c0-.28.093-.608.187-.888.093-.187.186-.467.373-.607.187-.187.374-.28.7-.374.14-.186.468-.186.748-.186z" fill="#FFF"/></svg>