<svg width="94" height="228" viewBox="0 0 94 228"><path fill-rule="evenodd" d="M28.924 227.827c-4.992 0-9.216-.864-12.672-2.592-3.456-1.728-5.184-3.936-5.184-6.624 0-1.92.624-4.368 1.872-7.344 1.248-2.976 3.312-5.52 6.192-7.632.768-.384 1.344-.576 1.728-.576.96 0 2.496.768 4.608 2.304 2.304 2.112 5.328 3.792 9.072 5.04 3.744 1.248 7.344 1.872 10.8 1.872 4.8 0 8.496-2.064 11.088-6.192 2.592-4.128 3.888-9.936 3.888-17.424 0-5.568-2.304-11.376-6.912-17.424-4.608-6.048-11.52-13.968-20.736-23.76l-5.184-5.184c-9.024-9.216-15.792-18.048-20.304-26.496C2.668 107.347.412 98.9.412 90.451c0-11.904 1.584-21.84 4.752-29.808 3.168-7.968 7.92-15.696 14.256-23.184 2.496-9.408 7.392-17.856 14.688-25.344C41.404 4.627 49.852.883 59.452.883c3.648 0 7.536.576 11.664 1.728 4.128 1.152 6.96 2.4 8.496 3.744 2.304 1.92 3.456 3.648 3.456 5.184 0 .576-.528 2.016-1.584 4.32a24.994 24.994 0 0 1-4.176 6.336c-1.728 1.92-3.456 2.88-5.184 2.88-1.344 0-2.592-.576-3.744-1.728-7.296-6.528-13.248-9.792-17.856-9.792-5.376 0-9.648 1.776-12.816 5.328-3.168 3.552-4.752 7.824-4.752 12.816 0 5.184 2.784 11.568 8.352 19.152 5.568 7.584 12.768 15.408 21.6 23.472 11.52 10.368 19.44 20.448 23.76 30.24 4.32 9.792 6.48 21.408 6.48 34.848 0 10.944-2.16 21.984-6.48 33.12-4.32 11.136-10.224 21.264-17.712 30.384-7.488 9.12-15.648 16.368-24.48 21.744-3.456 2.112-8.64 3.168-15.552 3.168zm46.944-57.312c.192.768.672 1.104 1.44 1.008.768-.096 1.248-.432 1.44-1.008 2.112-8.064 3.168-15.072 3.168-21.024 0-9.6-2.064-18.336-6.192-26.208s-10.704-16.512-19.728-25.92C45.82 86.995 37.852 78.5 32.092 71.875c-5.76-6.624-9.6-12.816-11.52-18.576-.192-.768-.672-1.104-1.44-1.008-.768.096-1.248.432-1.44 1.008-2.112 8.064-3.168 15.072-3.168 21.024 0 9.6 2.064 18.336 6.192 26.208s10.704 16.512 19.728 25.92c10.176 10.368 18.144 18.864 23.904 25.488 5.76 6.624 9.6 12.816 11.52 18.576z"/></svg>