<svg  xmlns="http://www.w3.org/2000/svg" viewBox="0 0 432.19 51.92"><defs><style>.cls-1{fill:#4e4645;}.cls-2{fill:#d16c56;}</style></defs><title>localiced-enabled</title><path class="cls-1" d="M8.78,47.84c-2.38,0-3.1.3-6.25.3-1,0-1.72-.18-1.72-.77s.59-.72,2-.95c3-.54,4-1.61,4-4.46V15.2c0-2.86-1-3.81-4-4.34-1.37-.24-2-.42-2-1.07S1.52,9,2.53,9c3,0,3.75.12,6.6.12,2.56,0,8.57-.47,10.17-.47,16.12,0,22.54,8.44,22.54,18.85a20.8,20.8,0,0,1-20.7,20.75C20,48.26,13.47,47.84,8.78,47.84ZM36.19,28.52c0-11.42-8.45-18-16.59-18-5.17,0-8.09.06-8.09,3.63V40.65c0,4.81,4.46,5.53,8.92,5.53C29.71,46.18,36.19,38.86,36.19,28.52Z"/><path class="cls-1" d="M42,47.37c0-.54.66-.95,2-1.37a7.35,7.35,0,0,0,5.11-4.58c4.46-10.17,7.08-17,11.12-27.95A13.19,13.19,0,0,0,61,10a7.67,7.67,0,0,0,2.14-.89c.72-.47.9-1.66,1.13-2a.21.21,0,0,1,.3.06c.18.36.24.83.42,1.31,3.8,12.07,8.62,26.1,10.58,31.75,1.67,4.76,3.63,5.53,6,6,1.37.24,2,.83,2,1.37s-.71.59-1.72.59c-1.67,0-5.59-.36-8.27-.36-2.32,0-4.82.06-6.24.06-1,0-1.73-.24-1.73-.71s.89-1,2-1.13c2.62-.42,3.63-1.37,3.63-2.68,0-1.72-1.43-6.66-2.32-9.63-.18-.59-.53-.65-1.6-.65H56.05c-.36,0-.72.23-1,1.07a85.26,85.26,0,0,0-2.44,8.56c0,1.72,1.55,2.91,3.45,3.39,1.37.36,2,.65,2,1.19s-.71.65-1.72.65-3.22-.12-5.42-.12c-2.61,0-5.17.36-7.13.36C42.73,48.14,42,47.84,42,47.37Zm24.86-16.3c.6,0,.83,0,.83-.29a3.45,3.45,0,0,0-.12-.6L63,15.67c-.24-.71-.36-1.07-.54-1.07s-.24.36-.48,1L56.52,30.18a1.85,1.85,0,0,0-.12.48c0,.41.48.41,1.25.41Z"/><path class="cls-1" d="M87,45.94a2.75,2.75,0,0,1-.78-1.19,44.54,44.54,0,0,1-.59-6.24c0-.54.53-.84,1.19-.84a.9.9,0,0,1,1,.66c1.55,6.12,5,8.5,8.44,8.5a6.86,6.86,0,0,0,7.14-7.25c0-4.88-2.5-6.42-6.72-9C92,27.62,86.85,25,86.85,19.18c0-6,4-10.82,12.43-10.82a15.77,15.77,0,0,1,6.24,1.31,2.42,2.42,0,0,1,1.25,1.48A23.86,23.86,0,0,1,108,17c0,.48-.42.65-.89.65a1.84,1.84,0,0,1-1.67-.83c-1.66-4.16-3.75-6.48-7.14-6.48-3.56,0-6.83,1.78-6.83,6.78,0,3.57,3.86,5.95,8.32,8.68,4.16,2.56,8.62,5.35,8.62,11.3,0,7.08-5.17,11.65-13,11.65A12.78,12.78,0,0,1,87,45.94Z"/><path class="cls-1" d="M124,47.49c0-.54.6-.84,2-1.07,2-.36,3.27-1.85,3.69-4.64C131,31.07,132,21.44,132,16.45c0-.6,0-1.37-.06-2a2.5,2.5,0,0,0-.89-2,8.62,8.62,0,0,0-4.46-1.78c-.78-.18-1.31-.66-1.31-1.19s.83-.66,2-.66c1.55,0,7.37.48,8.92.48a1.19,1.19,0,0,1,1.13,1c.42,1.43.71,3.09,1.31,4.58l9.39,23.84a.76.76,0,0,0,1.37.18l11.72-24.38c.35-1.31.83-3.21,1.07-4.46.11-.47.29-.77.59-.77H165c2.38,0,5.41-.48,6.78-.48.36,0,1.25.06,1.25.6s-.36.77-1.55,1.25-2.44.89-3.51,1.37a2.24,2.24,0,0,0-1.42,2c0,11.06.83,19.14,1.31,28.12.11,2.44,1.48,3.69,4.46,4.23,1.36.23,2,.53,2,1.07s-.72.65-1.73.65c-3.21,0-4.22-.3-6.95-.3-2.44,0-3,.3-6.25.3-1,0-1.72-.18-1.72-.65s.59-.9,2-1.07c2.32-.3,3-1.49,3-4.29,0-8.56-.35-13.85-.71-21.88-.12-.83-.54-.77-.95,0L147.26,48.14a.58.58,0,0,1-1.07-.06c-3.09-9.28-6.48-17.84-10.94-28.24-.18-.42-.71-.42-.77,0-1.13,8.38-1.91,13.85-1.91,21.94a4.69,4.69,0,0,0,3.87,4.64c1.37.23,2,.53,2,1.07s-.71.65-1.72.65c-3.21,0-3.39-.3-5.59-.3s-2.2.3-5.41.3C124.66,48.14,124,48,124,47.49Z"/><path class="cls-2" d="M176.28,47.37c0-.54.65-.95,2-1.37a7.35,7.35,0,0,0,5.11-4.58c4.46-10.17,7.08-17,11.12-27.95A12.8,12.8,0,0,0,195.3,10a7.85,7.85,0,0,0,2.15-.89c.71-.47.89-1.66,1.12-2a.21.21,0,0,1,.3.06c.18.36.24.83.42,1.31,3.8,12.07,8.62,26.1,10.58,31.75,1.67,4.76,3.63,5.53,6,6,1.37.24,2,.83,2,1.37s-.71.59-1.72.59c-1.67,0-5.59-.36-8.27-.36-2.32,0-4.82.06-6.24.06-1,0-1.73-.24-1.73-.71s.9-1,2-1.13c2.61-.42,3.62-1.37,3.62-2.68,0-1.72-1.42-6.66-2.32-9.63-.17-.59-.53-.65-1.6-.65H190.31c-.36,0-.71.23-1,1.07a85.26,85.26,0,0,0-2.44,8.56c0,1.72,1.55,2.91,3.45,3.39,1.37.36,2,.65,2,1.19s-.71.65-1.72.65-3.21-.12-5.41-.12c-2.62,0-5.18.36-7.14.36C177,48.14,176.28,47.84,176.28,47.37ZM185.73,8.6A3.27,3.27,0,1,1,189,11.87,3.3,3.3,0,0,1,185.73,8.6Zm15.4,22.47c.6,0,.83,0,.83-.29a4.4,4.4,0,0,0-.11-.6l-4.64-14.51c-.24-.71-.36-1.07-.54-1.07s-.24.36-.47,1l-5.41,14.57a1.85,1.85,0,0,0-.12.48c0,.41.47.41,1.25.41Zm2.32-22.59a3.27,3.27,0,1,1,3.27,3.27A3.3,3.3,0,0,1,203.45,8.48Z"/><path class="cls-1" d="M227.23,47.84c-2.37,0-3.09.3-6.24.3-1,0-1.72-.18-1.72-.77s.59-.72,2-.95c3-.54,4-1.61,4-4.46V15.2c0-2.86-1-3.81-4-4.34-1.37-.24-2-.42-2-1.07S220,9,221,9c3,0,3.75.12,6.6.12,2.56,0,8.56-.47,10.17-.47,16.11,0,22.54,8.44,22.54,18.85a20.8,20.8,0,0,1-20.7,20.75C238.41,48.26,231.93,47.84,227.23,47.84Zm27.42-19.32c0-11.42-8.45-18-16.59-18-5.18,0-8.09.06-8.09,3.63V40.65c0,4.81,4.46,5.53,8.92,5.53C248.17,46.18,254.65,38.86,254.65,28.52Z"/><path class="cls-1" d="M265.11,28.64c0-11.54,10.76-20.22,22.95-20.22A35.66,35.66,0,0,1,298.65,10a2,2,0,0,1,1.72,2c.18,1.84.42,3.74.54,6.83a1,1,0,0,1-2,.06c-.78-3-1.61-5.17-3.69-6.6a15.09,15.09,0,0,0-8.15-2c-9.27,0-15.93,8.21-15.93,17,0,9.69,6.48,19.68,16.35,19.68,5.71,0,9.22-2.73,11.83-7.43.54-1,2-1.07,2,.18a24.67,24.67,0,0,1-1.6,5.76c-.6,1.13-.66,1.19-1.9,1.61-2.92,1.19-7.38,1.72-11.24,1.72C275.46,48.73,265.11,40.77,265.11,28.64Z"/><path class="cls-1" d="M306.79,47.37c0-.54.54-.72,1.91-.95,3-.54,3.62-1.61,3.62-4.46V15.08c0-2.74-.18-3.69-3.15-4.22-1.37-.24-2-.54-2-1.07s.53-.78,1.72-.78c3.21,0,3.75.18,6.13.18s3.09-.18,6.3-.18c1.19,0,1.73.3,1.73.78s-.6.83-2,1.07c-3,.53-4,1.9-4,4.22V26.79c0,.48.48.54.83.54H340c.3,0,.42-.18.42-.72V15c0-2.14-.95-3.63-3.92-4.16-1.37-.24-2-.54-2-1.07s.66-.78,1.73-.78c3.21,0,4.22.18,6.9.18,2.14,0,2.2-.18,5.41-.18,1.13,0,1.72.3,1.72.78s-.59.83-2,1.07c-3,.53-3.15,1.9-3.15,4.16V41.9c0,2.91.35,4,3.33,4.52,1.36.23,1.9.41,1.9.95s-.71.77-1.72.77c-3.22,0-3.75-.3-6.19-.3s-3.15.3-6.36.3c-1,0-1.73-.3-1.73-.77s.54-.72,1.91-.95c2.49-.48,4.1-1.79,4.1-4.35V30.48c0-.42.06-.89-.3-.89H317.38c-.3,0-.3.18-.3.65v11.3c0,2.5,2,4.4,4.76,4.88,1.37.23,1.9.41,1.9.95s-.71.77-1.72.77c-3.22,0-4.23-.3-7-.3-2.56,0-3.33.3-6.54.3C307.51,48.14,306.79,47.84,306.79,47.37Z"/><path class="cls-1" d="M355,47.49c0-.54.59-.84,2-1.07,3-.54,4.4-1.61,4.4-4.46V15.2c0-2.86-1-3.81-4-4.34-1.37-.24-2-.66-2-1.19S356.09,9,357.1,9c4.46,0,6.36.18,10.52.18,2.62,0,5.65-.06,8.15-.06L380.82,9c.42,0,1,.12,1.07.54a39.68,39.68,0,0,1,.9,6.12.79.79,0,0,1-.84.89c-.41,0-.53-.17-.65-.59A10.79,10.79,0,0,0,380,12.7a5,5,0,0,0-4-1.61h-7.79c-.66,0-2.14.78-2.14,1.91V25.6a1.2,1.2,0,0,0,1.07,1.31H373c2.32,0,2.86-.71,3.45-2.91.24-.89.6-1.31,1.07-1.31a.93.93,0,0,1,.78.95c0,.54-.18,3.21-.18,4.16,0,1.19.12,4.11.12,4.58s-.06,1-.54,1-1.07-.65-1.37-1.9c-.47-1.84-1.19-2.68-2.73-2.68H368.1c-1.37,0-2,.18-2,1.55V41.78c0,3,1.25,4,3.92,4h4.4c2.56,0,4.16-.24,5.41-1s2.14-2.2,3.39-4.58c.24-.47.54-.83.95-.77a.75.75,0,0,1,.66.83,30.55,30.55,0,0,1-1.85,6.9c-.23.53-.35,1-.83,1-7.61,0-12.66-.36-18.61-.36-2.68,0-3.63.36-6.84.36C355.67,48.14,355,48,355,47.49Z"/><path class="cls-1" d="M420.9,45.11c-1.07-1.49-20.52-24.38-21.88-26-.6-.71-.95-.95-1.25-.95s-.54.77-.54,1.25c-.12,5.89-.29,15-.29,22.3,0,2.14.83,4.22,3.8,4.76,1.37.23,2,.53,2,1.07s-.71.65-1.72.65c-3.21,0-3.39-.3-5.59-.3s-2.2.3-5.41.3c-1,0-1.73-.18-1.73-.65s.6-.78,2-1.13c2.26-.6,3.21-2.44,3.45-4.88.47-4.46,1.07-14,1.07-23.79,0-4.22-2.38-5.59-5.89-6.71-.36-.12-1.84-.72-1.84-1.43s.95-.83,1.36-.83c4.64.11,4.88.29,9.16.29.71,0,1,.48,1.43,1,1.13,1.61,22.18,27.12,23.37,28.55.29.35,1,1.19,1.48,1.19.3,0,.54-.36.6-1.25.06-2.26.12-13.32.12-24.2-.06-1.55-2.14-3-3.45-3.28s-2.68-.65-2.68-1.18,1.43-.66,2.44-.66h3.39c2.85,0,3.21-.18,6.84-.18,1,0,1.72.18,1.72.66s-.59.95-2,1.19c-3,.53-3.63,1.24-3.75,3.21C427,15.14,427,32.2,427,41.6c0,2.85.29,5,.29,5.77,0,1.25-.65,1.48-1.25,1.48S422.8,47.72,420.9,45.11Z"/></svg>
