<svg xmlns="http://www.w3.org/2000/svg" viewBox="0 0 34.42 42.36"><title>localiced-launcher</title><path d="M6,19.58l0-.82c1.21-.35,1.85-.56,2-.61a9.34,9.34,0,0,0,2.1-1.37,9.42,9.42,0,0,0,1.84-2.06,3.26,3.26,0,0,1,.53-.06l.34,0c.07.89.11,1.54.11,2,0,.09,0,.51-.06,1.25v1.47l0,8-.08,8.48a2.05,2.05,0,0,0,.33,1.43,5.44,5.44,0,0,0,2.14.91,15.54,15.54,0,0,1,1.67.53A.93.93,0,0,1,17,39a1,1,0,0,1-.14.42c-.72,0-1.65-.07-2.78-.14-1.54-.13-2.55-.2-3.06-.2l-4.44.14c-.56,0-1.1.07-1.62.14a2.18,2.18,0,0,1-.44-.08A.63.63,0,0,1,4.38,39c0-.26.18-.46.53-.61.07,0,1-.25,2.84-.64a1.77,1.77,0,0,0,1.16-.55,2.92,2.92,0,0,0,.48-1.86q0-2.15,0-11.71a9.28,9.28,0,0,0-.17-2.39,2.08,2.08,0,0,0-.73-.76A8.11,8.11,0,0,0,6,19.58ZM8.33,5.16A2.09,2.09,0,0,1,9,3.57a2.42,2.42,0,0,1,1.71-.67,2.52,2.52,0,0,1,1.8.75,2.23,2.23,0,0,1,.78,1.62,2.26,2.26,0,0,1-.78,1.62,2.5,2.5,0,0,1-1.8.77A2.34,2.34,0,0,1,9,7,2.43,2.43,0,0,1,8.33,5.16Z"/><path d="M19,19.58l0-.82c1.2-.35,1.85-.56,1.94-.61a8.91,8.91,0,0,0,2.1-1.37A9.47,9.47,0,0,0,25,14.72a3.15,3.15,0,0,1,.53-.06l.33,0c.08.89.11,1.54.11,2,0,.09,0,.51-.05,1.25v1.47l0,8-.09,8.48a2,2,0,0,0,.34,1.43,5.44,5.44,0,0,0,2.14.91,15.22,15.22,0,0,1,1.66.53A.78.78,0,0,1,30,39a1,1,0,0,1-.14.42c-.72,0-1.65-.07-2.78-.14-1.54-.13-2.56-.2-3.06-.2l-4.45.14c-.55,0-1.09.07-1.61.14a2.18,2.18,0,0,1-.44-.08.56.56,0,0,1-.14-.34c0-.26.17-.46.53-.61.07,0,1-.25,2.83-.64A1.83,1.83,0,0,0,22,37.18a3,3,0,0,0,.47-1.86q.06-2.15.06-11.71a9.79,9.79,0,0,0-.17-2.39,2,2,0,0,0-.74-.76A8,8,0,0,0,19,19.58Z"/></svg>
