<?xml version="1.0" standalone="no"?>
<!DOCTYPE svg PUBLIC "-//W3C//DTD SVG 20010904//EN"
 "http://www.w3.org/TR/2001/REC-SVG-20010904/DTD/svg10.dtd">
<svg version="1.0" xmlns="http://www.w3.org/2000/svg"
 width="260.000000pt" height="260.000000pt" viewBox="0 0 260.000000 260.000000"
 preserveAspectRatio="xMidYMid meet">
<metadata>
Created by potrace 1.11, written by Peter Selinger 2001-2013
</metadata>
<g transform="translate(0.000000,260.000000) scale(0.100000,-0.100000)"
fill="#000000" stroke="none">
<path d="M1211 2533 c-88 -32 -170 -144 -167 -225 2 -34 -4 -35 -35 -7 -71 62
-215 153 -271 170 -247 78 -537 -152 -565 -448 -6 -60 -5 -63 26 -92 35 -33
60 -40 109 -30 77 16 109 87 68 148 -44 66 -50 123 -18 194 33 73 107 120 176
111 111 -16 212 -75 440 -258 180 -146 311 -238 409 -286 37 -18 67 -37 67
-42 0 -28 -91 -180 -124 -208 -14 -11 -21 -7 -54 28 -153 166 -403 154 -582
-28 -141 -143 -182 -332 -129 -585 30 -141 117 -335 211 -473 65 -95 232 -265
315 -320 187 -126 388 -172 578 -134 162 33 273 123 259 211 -11 62 -92 149
-148 158 -46 7 -61 -5 -132 -114 -67 -100 -106 -128 -184 -128 -112 0 -181 69
-198 197 -7 54 -5 78 9 123 32 104 91 164 319 322 283 198 368 309 371 488 2
99 -50 200 -131 253 -62 41 -113 56 -196 55 -81 0 -161 -30 -204 -76 -46 -48
-40 -28 13 46 29 40 61 91 71 115 10 23 23 42 29 42 5 0 37 -7 71 -16 77 -20
90 -22 207 -30 82 -6 107 -4 167 15 131 40 290 169 383 313 50 78 63 119 56
185 -10 93 -63 154 -141 158 -79 5 -138 -31 -158 -96 -10 -35 -8 -44 27 -114
57 -117 51 -198 -22 -267 -48 -46 -98 -61 -192 -59 -46 1 -87 3 -90 5 -4 3
-26 7 -49 11 -24 3 -80 19 -125 34 l-82 27 5 35 c7 53 6 249 -3 292 -4 21 -12
47 -17 58 -6 10 -8 19 -5 19 4 0 -8 27 -26 60 -38 71 -94 130 -147 156 -50 24
-136 27 -191 7z m169 -150 c79 -49 128 -178 128 -335 0 -46 -2 -86 -4 -90 -10
-16 -254 145 -330 218 -25 24 -39 81 -30 118 22 89 155 139 236 89z"/>
</g>
</svg>
